<?xml version="1.0" standalone="no"?>
<!DOCTYPE svg PUBLIC "-//W3C//DTD SVG 1.1//EN" "http://www.w3.org/Graphics/SVG/1.1/DTD/svg11.dtd" >
<svg xmlns="http://www.w3.org/2000/svg" xmlns:xlink="http://www.w3.org/1999/xlink" version="1.1">
<metadata>
Created by FontForge 20170924 at Thu May  7 06:32:34 2020
 By www-data
(c) Pineapple Lasagna 2018
</metadata>
<defs>
<font id="USPHandwritingSmoothRegular" horiz-adv-x="204" >
  <font-face 
    font-family="USP Handwriting SmoothRegular"
    font-weight="400"
    font-stretch="normal"
    units-per-em="2048"
    panose-1="0 0 0 0 0 0 0 0 0 0"
    ascent="1638"
    descent="-410"
    x-height="954"
    cap-height="1581"
    bbox="0 -693 2190 2032"
    underline-thickness="102"
    underline-position="-714"
    unicode-range="U+000A-25FC"
  />
<missing-glyph horiz-adv-x="1024" 
 />
    <glyph glyph-name=".notdef" horiz-adv-x="1024" 
 />
    <glyph glyph-name=".notdef" horiz-adv-x="1024" 
 />
    <glyph glyph-name="glyph1" horiz-adv-x="0" 
 />
    <glyph glyph-name="glyph2" horiz-adv-x="682" 
 />
    <glyph glyph-name="uni000A" unicode="&#xa;" 
 />
    <glyph glyph-name="uni000D" unicode="&#xd;" 
 />
    <glyph glyph-name="space" unicode=" " horiz-adv-x="1001" 
 />
    <glyph glyph-name="period" unicode="." horiz-adv-x="587" 
d="M203 109q4 9 12 19q7 16 28 23q22 12 46 17q41 7 62 -29q4 -7 5 -14q6 -4 8 -7q24 -26 25 -62t-19 -65q-15 -23 -38.5 -29.5t-46 1t-43 24t-31.5 36.5q-25 46 -8 86z" />
    <glyph glyph-name="A" unicode="A" horiz-adv-x="1900" 
d="M198 61q-1 6 0 13q0 26 15 50q17 23 26.5 54t16.5 71t13 60q8 29 19.5 62t25 72.5t21.5 62.5q-8 19 -8 38q0 46 42 70q81 257 134 401q92 246 218 461q8 13 29.5 52t33.5 60t36.5 53.5t45 50t51 32t62.5 15.5h10q35 0 65 -13q34 -15 57.5 -37.5t44.5 -59.5t32.5 -66
t24.5 -69q27 -83 79.5 -251t79.5 -251q49 -152 79 -290q74 4 111 4q61 0 108 -60q34 -44 34 -83q0 -10 -2 -19q-13 -46 -77 -47q-61 0 -138 -5q5 -39 11.5 -111.5t8.5 -95.5q5 -49 7 -68.5t-0.5 -58t-13.5 -67.5q-29 -55 -85 -55h-1q-58 0 -106 51q-35 36 -34 73q0 15 5 30
q6 17 8 39t1 36t-4.5 43t-4.5 37q-2 21 -5.5 62t-5.5 62q-116 -17 -265 -51q-16 -4 -67.5 -16.5t-76.5 -18t-66 -12t-75 -8.5q-9 -1 -19 -1q-65 0 -150 24q-9 -27 -41 -122q-11 -31 -24.5 -91.5t-29.5 -108.5t-43 -84q-21 -30 -56 -34q-8 -1 -15 0q-28 0 -52 12
q-32 16 -59 43t-31 60zM609 576q23 -3 46 -3q31 0 61 5q50 9 142 32t133 31q135 25 246 40q-28 135 -72 272q-19 58 -60.5 194t-65.5 209q-5 15 -21 53t-21 51q-17 -22 -20 -27q-194 -319 -337 -758q-11 -33 -31 -99z" />
    <glyph glyph-name="A" unicode="&#xc4;" horiz-adv-x="1900" 
d="M198 61q-1 6 0 13q0 26 15 50q17 23 26.5 54t16.5 71t13 60q8 29 19.5 62t25 72.5t21.5 62.5q-8 19 -8 38q0 46 42 70q81 257 134 401q92 246 218 461q8 13 29.5 52t33.5 60t36.5 53.5t45 50t51 32t62.5 15.5h10q35 0 65 -13q34 -15 57.5 -37.5t44.5 -59.5t32.5 -66
t24.5 -69q27 -83 79.5 -251t79.5 -251q49 -152 79 -290q74 4 111 4q61 0 108 -60q34 -44 34 -83q0 -10 -2 -19q-13 -46 -77 -47q-61 0 -138 -5q5 -39 11.5 -111.5t8.5 -95.5q5 -49 7 -68.5t-0.5 -58t-13.5 -67.5q-29 -55 -85 -55h-1q-58 0 -106 51q-35 36 -34 73q0 15 5 30
q6 17 8 39t1 36t-4.5 43t-4.5 37q-2 21 -5.5 62t-5.5 62q-116 -17 -265 -51q-16 -4 -67.5 -16.5t-76.5 -18t-66 -12t-75 -8.5q-9 -1 -19 -1q-65 0 -150 24q-9 -27 -41 -122q-11 -31 -24.5 -91.5t-29.5 -108.5t-43 -84q-21 -30 -56 -34q-8 -1 -15 0q-28 0 -52 12
q-32 16 -59 43t-31 60zM609 576q23 -3 46 -3q31 0 61 5q50 9 142 32t133 31q135 25 246 40q-28 135 -72 272q-19 58 -60.5 194t-65.5 209q-5 15 -21 53t-21 51q-17 -22 -20 -27q-194 -319 -337 -758q-11 -33 -31 -99z" />
    <glyph glyph-name="A" unicode="&#xc3;" horiz-adv-x="1900" 
d="M198 61q-1 6 0 13q0 26 15 50q17 23 26.5 54t16.5 71t13 60q8 29 19.5 62t25 72.5t21.5 62.5q-8 19 -8 38q0 46 42 70q81 257 134 401q92 246 218 461q8 13 29.5 52t33.5 60t36.5 53.5t45 50t51 32t62.5 15.5h10q35 0 65 -13q34 -15 57.5 -37.5t44.5 -59.5t32.5 -66
t24.5 -69q27 -83 79.5 -251t79.5 -251q49 -152 79 -290q74 4 111 4q61 0 108 -60q34 -44 34 -83q0 -10 -2 -19q-13 -46 -77 -47q-61 0 -138 -5q5 -39 11.5 -111.5t8.5 -95.5q5 -49 7 -68.5t-0.5 -58t-13.5 -67.5q-29 -55 -85 -55h-1q-58 0 -106 51q-35 36 -34 73q0 15 5 30
q6 17 8 39t1 36t-4.5 43t-4.5 37q-2 21 -5.5 62t-5.5 62q-116 -17 -265 -51q-16 -4 -67.5 -16.5t-76.5 -18t-66 -12t-75 -8.5q-9 -1 -19 -1q-65 0 -150 24q-9 -27 -41 -122q-11 -31 -24.5 -91.5t-29.5 -108.5t-43 -84q-21 -30 -56 -34q-8 -1 -15 0q-28 0 -52 12
q-32 16 -59 43t-31 60zM609 576q23 -3 46 -3q31 0 61 5q50 9 142 32t133 31q135 25 246 40q-28 135 -72 272q-19 58 -60.5 194t-65.5 209q-5 15 -21 53t-21 51q-17 -22 -20 -27q-194 -319 -337 -758q-11 -33 -31 -99z" />
    <glyph glyph-name="A" unicode="&#xc2;" horiz-adv-x="1900" 
d="M198 61q-1 6 0 13q0 26 15 50q17 23 26.5 54t16.5 71t13 60q8 29 19.5 62t25 72.5t21.5 62.5q-8 19 -8 38q0 46 42 70q81 257 134 401q92 246 218 461q8 13 29.5 52t33.5 60t36.5 53.5t45 50t51 32t62.5 15.5h10q35 0 65 -13q34 -15 57.5 -37.5t44.5 -59.5t32.5 -66
t24.5 -69q27 -83 79.5 -251t79.5 -251q49 -152 79 -290q74 4 111 4q61 0 108 -60q34 -44 34 -83q0 -10 -2 -19q-13 -46 -77 -47q-61 0 -138 -5q5 -39 11.5 -111.5t8.5 -95.5q5 -49 7 -68.5t-0.5 -58t-13.5 -67.5q-29 -55 -85 -55h-1q-58 0 -106 51q-35 36 -34 73q0 15 5 30
q6 17 8 39t1 36t-4.5 43t-4.5 37q-2 21 -5.5 62t-5.5 62q-116 -17 -265 -51q-16 -4 -67.5 -16.5t-76.5 -18t-66 -12t-75 -8.5q-9 -1 -19 -1q-65 0 -150 24q-9 -27 -41 -122q-11 -31 -24.5 -91.5t-29.5 -108.5t-43 -84q-21 -30 -56 -34q-8 -1 -15 0q-28 0 -52 12
q-32 16 -59 43t-31 60zM609 576q23 -3 46 -3q31 0 61 5q50 9 142 32t133 31q135 25 246 40q-28 135 -72 272q-19 58 -60.5 194t-65.5 209q-5 15 -21 53t-21 51q-17 -22 -20 -27q-194 -319 -337 -758q-11 -33 -31 -99z" />
    <glyph glyph-name="A" unicode="&#xc1;" horiz-adv-x="1900" 
d="M198 61q-1 6 0 13q0 26 15 50q17 23 26.5 54t16.5 71t13 60q8 29 19.5 62t25 72.5t21.5 62.5q-8 19 -8 38q0 46 42 70q81 257 134 401q92 246 218 461q8 13 29.5 52t33.5 60t36.5 53.5t45 50t51 32t62.5 15.5h10q35 0 65 -13q34 -15 57.5 -37.5t44.5 -59.5t32.5 -66
t24.5 -69q27 -83 79.5 -251t79.5 -251q49 -152 79 -290q74 4 111 4q61 0 108 -60q34 -44 34 -83q0 -10 -2 -19q-13 -46 -77 -47q-61 0 -138 -5q5 -39 11.5 -111.5t8.5 -95.5q5 -49 7 -68.5t-0.5 -58t-13.5 -67.5q-29 -55 -85 -55h-1q-58 0 -106 51q-35 36 -34 73q0 15 5 30
q6 17 8 39t1 36t-4.5 43t-4.5 37q-2 21 -5.5 62t-5.5 62q-116 -17 -265 -51q-16 -4 -67.5 -16.5t-76.5 -18t-66 -12t-75 -8.5q-9 -1 -19 -1q-65 0 -150 24q-9 -27 -41 -122q-11 -31 -24.5 -91.5t-29.5 -108.5t-43 -84q-21 -30 -56 -34q-8 -1 -15 0q-28 0 -52 12
q-32 16 -59 43t-31 60zM609 576q23 -3 46 -3q31 0 61 5q50 9 142 32t133 31q135 25 246 40q-28 135 -72 272q-19 58 -60.5 194t-65.5 209q-5 15 -21 53t-21 51q-17 -22 -20 -27q-194 -319 -337 -758q-11 -33 -31 -99z" />
    <glyph glyph-name="A" unicode="&#xc0;" horiz-adv-x="1900" 
d="M198 61q-1 6 0 13q0 26 15 50q17 23 26.5 54t16.5 71t13 60q8 29 19.5 62t25 72.5t21.5 62.5q-8 19 -8 38q0 46 42 70q81 257 134 401q92 246 218 461q8 13 29.5 52t33.5 60t36.5 53.5t45 50t51 32t62.5 15.5h10q35 0 65 -13q34 -15 57.5 -37.5t44.5 -59.5t32.5 -66
t24.5 -69q27 -83 79.5 -251t79.5 -251q49 -152 79 -290q74 4 111 4q61 0 108 -60q34 -44 34 -83q0 -10 -2 -19q-13 -46 -77 -47q-61 0 -138 -5q5 -39 11.5 -111.5t8.5 -95.5q5 -49 7 -68.5t-0.5 -58t-13.5 -67.5q-29 -55 -85 -55h-1q-58 0 -106 51q-35 36 -34 73q0 15 5 30
q6 17 8 39t1 36t-4.5 43t-4.5 37q-2 21 -5.5 62t-5.5 62q-116 -17 -265 -51q-16 -4 -67.5 -16.5t-76.5 -18t-66 -12t-75 -8.5q-9 -1 -19 -1q-65 0 -150 24q-9 -27 -41 -122q-11 -31 -24.5 -91.5t-29.5 -108.5t-43 -84q-21 -30 -56 -34q-8 -1 -15 0q-28 0 -52 12
q-32 16 -59 43t-31 60zM609 576q23 -3 46 -3q31 0 61 5q50 9 142 32t133 31q135 25 246 40q-28 135 -72 272q-19 58 -60.5 194t-65.5 209q-5 15 -21 53t-21 51q-17 -22 -20 -27q-194 -319 -337 -758q-11 -33 -31 -99z" />
    <glyph glyph-name="B" unicode="B" horiz-adv-x="2195" 
d="M199.5 1166q-6.5 22 0 45.5t27.5 41.5q121 104 337 182q128 46 228 46q95 0 166 -41q74 -43 106 -119q27 -64 28 -130q0 -13 -1 -25q-6 -78 -38 -159q-49 -124 -148 -298q298 104 556 139q77 10 134 12h11q54 0 116 -12q70 -14 123 -51q69 -46 109 -116.5t43 -152.5v-14
q0 -160 -106 -312q-111 -158 -269 -221q-116 -45 -264 -57q-74 -6 -141 -6t-127 6q-121 12 -269 38q-19 3 -36 12q-66 3 -120 76q-43 60 -74.5 127t-53.5 151t-32.5 137t-27.5 155q-9 54 -47 346q-5 35 -20 125q-4 -3 -11 -8.5t-10 -8.5q-18 -16 -42 -19t-46.5 5.5t-44.5 24
t-36 37.5t-20.5 44zM620 1213v-14q0 -27 2 -55q4 -36 8 -62t12 -69.5t11 -64.5q4 -28 19 -149q83 149 113 206q74 144 81 221q2 20 -3 45q-118 -7 -243 -58zM736 400q34 -141 89 -237q82 -15 158 -23q77 -9 167 -10h16q81 0 151 9q77 10 154.5 37.5t135 72t100.5 116
t59 164.5q4 23 4 43q0 27 -8 45q-14 32 -66 36q-17 1 -37 1q-36 0 -79 -4q-66 -8 -103 -15.5t-113 -25.5q-267 -62 -628 -209z" />
    <glyph glyph-name="C" unicode="C" horiz-adv-x="1546" 
d="M203 548q-6 43 -6 85q0 305 315 558q203 163 354 191q41 8 86 7q137 0 315 -70q65 -25 79 -87q3 -14 3 -27q0 -36 -25 -60q-24 -21 -57 -21q-24 0 -53 11q-60 24 -106 35q-39 9 -86 9h-18q-56 -2 -108 -24q-97 -43 -222 -143q-79 -64 -133 -126q-55 -62 -89 -148
q-30 -75 -30 -155q0 -12 1 -23q15 -264 282 -313q25 -5 49 -4q23 -1 46 3q47 8 95.5 36t82 51.5t85 65t73.5 57.5q24 17 52 17q26 0 56 -15q62 -30 81 -84q5 -15 5 -30q0 -36 -32 -67q-156 -115 -215 -150q-151 -89 -293 -89q-22 0 -44 2q-49 6 -98 20q-187 55 -303 178.5
t-142 309.5z" />
    <glyph glyph-name="D" unicode="D" horiz-adv-x="2041" 
d="M202 87q20 47 74 50h8q50 0 98 -36q3 177 19.5 558t18.5 581q-48 5 -87 46t-39 90t54 71q88 36 203 36q127 0 286 -44q310 -87 465 -168q207 -109 314 -301q20 -34 55 -105t54 -106q3 -5 12.5 -22t13 -23t12 -22t12.5 -23.5t11.5 -22t12 -24t10 -22.5t9.5 -25l8 -24
q17 -63 17 -118q0 -15 -1 -30q-6 -68 -42 -129t-87.5 -109t-120.5 -87q-79 -45 -284 -131q-58 -24 -159 -76t-139 -70q-169 -78 -305 -78q-67 0 -126 19q-179 59 -348 244q-35 38 -35 73q0 14 6 28zM606 -58q32 -8 64 -7q48 0 99 16q70 23 190 85t153 77t99 40t113 45.5
t102.5 49.5t98.5 66.5t69 81.5q11 19 17 40.5t8 38t-4 41t-9 37.5t-16 40t-18 36t-22 38t-20 35q-13 24 -57.5 117t-82.5 147t-92 91q-17 12 -37 23.5t-36 20.5t-41 19.5t-38 16.5t-43 16.5t-39.5 14.5t-44 14.5t-40 12.5t-43.5 13t-40 12q-161 49 -257 53q8 -19 8 -38
q-1 -218 -19.5 -644t-20.5 -632q0 -12 -1 -17z" />
    <glyph glyph-name="E" unicode="E" horiz-adv-x="1603" 
d="M196 1182v9q0 81 9 149q4 29 30 42.5t55.5 12t51.5 -11.5q44 -20 67 -58q18 -30 18 -65q0 -9 -1 -19q-7 -38 -8 -96q0 -16 2 -33q2 -80 7 -131.5t13 -131.5t11 -129q3 -48 9.5 -147t10.5 -176t6 -147q0 -8 -0.5 -26t0.5 -32t4 -25q5 -16 5 -17q14 -6 40.5 -8.5t58 -3.5
t35.5 -1q51 -4 107 -6h30q91 -1 244 9q180 12 264 12q61 0 108 -60q34 -44 34 -83q0 -10 -2 -19q-11 -47 -77 -47q-83 0 -226 -8q-144 -9 -228 -11q-18 -1 -39 0q-76 0 -188 7q-58 6 -99.5 12.5t-92 23t-84.5 39.5t-63.5 63t-43.5 94q-9 33 -12 68t-3 87.5t-1 68.5
q-2 54 -20 327q-3 55 -12 153.5t-14.5 163.5t-5.5 151zM473 1552v5q0 49 56 65q116 33 208 49q67 12 144 12q29 0 59 -2q110 -6 207 -43q63 -24 79 -82q4 -17 4 -31q0 -37 -28 -62q-22 -21 -54 -21q-24 0 -54 12q-52 20 -108 24l-34 2q-41 0 -87 -8q-65 -10 -107 -20
t-113 -31q-14 -4 -29 -4q-44 0 -89 38q-52 46 -54 97zM513 992v5q0 49 56 67q314 101 609 101q32 0 63 -1q46 -2 87 -30t53 -72q4 -13 4 -26q1 -26 -15 -48q-22 -33 -64 -33h-2q-29 1 -58 1q-269 0 -561 -92q-16 -5 -32 -5q-43 0 -86 37q-51 45 -54 96z" />
    <glyph glyph-name="E" unicode="&#xca;" horiz-adv-x="1603" 
d="M196 1182v9q0 81 9 149q4 29 30 42.5t55.5 12t51.5 -11.5q44 -20 67 -58q18 -30 18 -65q0 -9 -1 -19q-7 -38 -8 -96q0 -16 2 -33q2 -80 7 -131.5t13 -131.5t11 -129q3 -48 9.5 -147t10.5 -176t6 -147q0 -8 -0.5 -26t0.5 -32t4 -25q5 -16 5 -17q14 -6 40.5 -8.5t58 -3.5
t35.5 -1q51 -4 107 -6h30q91 -1 244 9q180 12 264 12q61 0 108 -60q34 -44 34 -83q0 -10 -2 -19q-11 -47 -77 -47q-83 0 -226 -8q-144 -9 -228 -11q-18 -1 -39 0q-76 0 -188 7q-58 6 -99.5 12.5t-92 23t-84.5 39.5t-63.5 63t-43.5 94q-9 33 -12 68t-3 87.5t-1 68.5
q-2 54 -20 327q-3 55 -12 153.5t-14.5 163.5t-5.5 151zM473 1552v5q0 49 56 65q116 33 208 49q67 12 144 12q29 0 59 -2q110 -6 207 -43q63 -24 79 -82q4 -17 4 -31q0 -37 -28 -62q-22 -21 -54 -21q-24 0 -54 12q-52 20 -108 24l-34 2q-41 0 -87 -8q-65 -10 -107 -20
t-113 -31q-14 -4 -29 -4q-44 0 -89 38q-52 46 -54 97zM513 992v5q0 49 56 67q314 101 609 101q32 0 63 -1q46 -2 87 -30t53 -72q4 -13 4 -26q1 -26 -15 -48q-22 -33 -64 -33h-2q-29 1 -58 1q-269 0 -561 -92q-16 -5 -32 -5q-43 0 -86 37q-51 45 -54 96z" />
    <glyph glyph-name="E" unicode="&#xc9;" horiz-adv-x="1603" 
d="M196 1182v9q0 81 9 149q4 29 30 42.5t55.5 12t51.5 -11.5q44 -20 67 -58q18 -30 18 -65q0 -9 -1 -19q-7 -38 -8 -96q0 -16 2 -33q2 -80 7 -131.5t13 -131.5t11 -129q3 -48 9.5 -147t10.5 -176t6 -147q0 -8 -0.5 -26t0.5 -32t4 -25q5 -16 5 -17q14 -6 40.5 -8.5t58 -3.5
t35.5 -1q51 -4 107 -6h30q91 -1 244 9q180 12 264 12q61 0 108 -60q34 -44 34 -83q0 -10 -2 -19q-11 -47 -77 -47q-83 0 -226 -8q-144 -9 -228 -11q-18 -1 -39 0q-76 0 -188 7q-58 6 -99.5 12.5t-92 23t-84.5 39.5t-63.5 63t-43.5 94q-9 33 -12 68t-3 87.5t-1 68.5
q-2 54 -20 327q-3 55 -12 153.5t-14.5 163.5t-5.5 151zM473 1552v5q0 49 56 65q116 33 208 49q67 12 144 12q29 0 59 -2q110 -6 207 -43q63 -24 79 -82q4 -17 4 -31q0 -37 -28 -62q-22 -21 -54 -21q-24 0 -54 12q-52 20 -108 24l-34 2q-41 0 -87 -8q-65 -10 -107 -20
t-113 -31q-14 -4 -29 -4q-44 0 -89 38q-52 46 -54 97zM513 992v5q0 49 56 67q314 101 609 101q32 0 63 -1q46 -2 87 -30t53 -72q4 -13 4 -26q1 -26 -15 -48q-22 -33 -64 -33h-2q-29 1 -58 1q-269 0 -561 -92q-16 -5 -32 -5q-43 0 -86 37q-51 45 -54 96z" />
    <glyph glyph-name="E" unicode="&#xc8;" horiz-adv-x="1603" 
d="M196 1182v9q0 81 9 149q4 29 30 42.5t55.5 12t51.5 -11.5q44 -20 67 -58q18 -30 18 -65q0 -9 -1 -19q-7 -38 -8 -96q0 -16 2 -33q2 -80 7 -131.5t13 -131.5t11 -129q3 -48 9.5 -147t10.5 -176t6 -147q0 -8 -0.5 -26t0.5 -32t4 -25q5 -16 5 -17q14 -6 40.5 -8.5t58 -3.5
t35.5 -1q51 -4 107 -6h30q91 -1 244 9q180 12 264 12q61 0 108 -60q34 -44 34 -83q0 -10 -2 -19q-11 -47 -77 -47q-83 0 -226 -8q-144 -9 -228 -11q-18 -1 -39 0q-76 0 -188 7q-58 6 -99.5 12.5t-92 23t-84.5 39.5t-63.5 63t-43.5 94q-9 33 -12 68t-3 87.5t-1 68.5
q-2 54 -20 327q-3 55 -12 153.5t-14.5 163.5t-5.5 151zM473 1552v5q0 49 56 65q116 33 208 49q67 12 144 12q29 0 59 -2q110 -6 207 -43q63 -24 79 -82q4 -17 4 -31q0 -37 -28 -62q-22 -21 -54 -21q-24 0 -54 12q-52 20 -108 24l-34 2q-41 0 -87 -8q-65 -10 -107 -20
t-113 -31q-14 -4 -29 -4q-44 0 -89 38q-52 46 -54 97zM513 992v5q0 49 56 67q314 101 609 101q32 0 63 -1q46 -2 87 -30t53 -72q4 -13 4 -26q1 -26 -15 -48q-22 -33 -64 -33h-2q-29 1 -58 1q-269 0 -561 -92q-16 -5 -32 -5q-43 0 -86 37q-51 45 -54 96z" />
    <glyph glyph-name="F" unicode="F" horiz-adv-x="1583" 
d="M198 957q12 47 77 47q13 0 39.5 0.5t39.5 0.5q-37 290 -76 443q-5 18 -5 34q0 46 43 62q19 7 39 7q33 0 71 -19q51 -25 67 -71q52 3 111 10t131 17t111 15q144 19 188 20q21 1 57 -1q30 -2 56 -3q5 1 10 1q30 0 56 6q13 3 26 3l92 -41q55 -49 55 -100q0 -47 -57 -62
q-70 -18 -205 -20t-181 -8q-34 -4 -124.5 -17t-155 -20.5t-125.5 -9.5q14 -81 36 -245q130 -2 226 -12q48 -5 142.5 -9.5t169.5 -12.5t140 -26q46 -13 82 -47q35 -33 35 -77q1 -44 -35 -67q-23 -16 -50 -16q-13 0 -26 4q-59 16 -128.5 23.5t-154.5 11.5t-132 9
q-98 11 -242 11q13 -103 28 -182q8 -47 29.5 -193.5t39.5 -225.5q4 -17 15 -66t15.5 -70t13 -63.5t12 -70.5t6.5 -64.5t3 -70.5q0 -67 -59 -77q-11 -2 -22 -2q-44 0 -90 32q-56 40 -56 95q0 49 -7 105.5t-15.5 97t-23 105.5t-21.5 99q-14 72 -33.5 207t-30.5 194
q-14 75 -24 148h-43q-62 0 -109 60q-34 43 -34 80q0 11 3 21z" />
    <glyph glyph-name="G" unicode="G" horiz-adv-x="2117" 
d="M198 454q4 92 31 191q101 369 401 651q60 56 132.5 98.5t153.5 65.5q50 15 101 15q30 0 61 -5q82 -14 147 -72q22 -20 37 -42t21 -52t-14 -54q-26 -32 -72 -32h-3q-48 1 -79 29q-22 19 -55 19q-69 0 -189 -84q-108 -76 -227 -236q-70 -94 -123 -195.5t-84 -226.5
q-20 -80 -20 -152q0 -39 6 -76t24.5 -69t39 -53.5t56 -43.5t60 -33.5t66.5 -30.5q14 -6 50.5 -23.5t63 -28.5t52.5 -19q28 -12 58 -12q9 0 17 1q39 5 65 17t66 38q209 137 313 251q56 62 80 148q-16 -5 -71 -23q-6 -2 -37.5 -13t-39.5 -13.5t-36 -11.5t-39.5 -11t-36 -6.5
t-39.5 -3.5t-36.5 2t-41 6.5t-38.5 13.5q-64 27 -78 89q-3 14 -3 27q0 36 26 61q22 20 52 20q25 0 56 -13q16 -7 46 1.5t72.5 27.5t45.5 20q90 32 204 62q5 1 38 10t43.5 11.5t41.5 9.5t45.5 7.5t41.5 3t44 -1.5t38.5 -10t39 -17.5t32.5 -27.5q51 -54 53 -153
q4 -181 11 -240q5 -42 21.5 -159.5t24.5 -200.5q6 -73 6 -143v-18q-1 -67 -60 -77q-10 -2 -20 -2l-92 34q-55 40 -55 94v18q0 43 -3 91q-5 60 -9.5 100.5t-14 112.5t-13.5 103q-3 31 -11 82q-27 -76 -72 -133q-107 -138 -367 -307q-96 -63 -187 -78q-28 -5 -58 -5
q-67 0 -143 23q-227 75 -384 179q-86 57 -140.5 133t-75.5 163q-18 73 -18 150q0 14 1 29z" />
    <glyph glyph-name="H" unicode="H" horiz-adv-x="1581" 
d="M200 1177q-4 17 -4 31q0 48 44 65q19 7 40 7q33 0 69 -18q57 -29 69 -81q41 -177 77 -438q112 5 314.5 32t273.5 33q-27 218 -27 372q0 33 1 63q3 67 62 77q11 2 22 2l88 -32q54 -39 54 -91l-1 -63q0 -51 3 -109q5 -92 11 -149.5t20.5 -173t19.5 -155.5q4 -37 28 -314
q2 -23 7.5 -62t8.5 -65.5t3 -61.5t-7 -64q-13 -57 -70 -57h-6q-59 3 -107 52q-40 40 -40 83q0 10 2 21q5 18 5 45v20q-2 41 -7 71t-12 71t-9 65q-8 108 -23 243q-31 -3 -250 -31t-336 -32q24 -187 29 -256q1 -16 2 -132t15 -175q4 -17 4 -31q0 -48 -44 -65q-19 -7 -40 -7
q-33 0 -69 18q-56 28 -68 80q-7 29 -11.5 58.5t-7 66t-3.5 56.5t-2 66t-1 60q-2 77 -29 290q-53 424 -98 615z" />
    <glyph glyph-name="I" unicode="I" horiz-adv-x="880" 
d="M197 1445q-1 8 -1 15q0 46 27 81q30 40 86 40q16 0 34 -3h3q46 0 90 -27q44 -28 69 -72q22 -48 22 -97.5t-32.5 -89t-88.5 -43.5h-12q-72 0 -129 55q-61 60 -68 141zM371 882q-7 21 -7 38q0 41 40 56q19 7 39 7q34 0 73 -19q57 -27 73 -77q21 -66 30 -140.5t13 -172.5
t9 -144q4 -43 14.5 -108.5t17 -107t10.5 -107.5q1 -20 1 -38q0 -41 -6 -71q-8 -57 -62 -57h-4q-57 2 -108 50q-47 44 -47 92q0 7 1 14q4 28 4 57.5t-4 62.5q-8 65 -23.5 141.5t-19.5 119.5q-4 42 -7 127.5t-10.5 151.5t-26.5 125zM422 1409v2v2v-4zM423 1407v3v-2v-1z
M424 1403q1 -1 1 -2v2q0 1 -1 3v1v-3v-1z" />
    <glyph glyph-name="I" unicode="&#xce;" horiz-adv-x="880" 
d="M197 1445q-1 8 -1 15q0 46 27 81q30 40 86 40q16 0 34 -3h3q46 0 90 -27q44 -28 69 -72q22 -48 22 -97.5t-32.5 -89t-88.5 -43.5h-12q-72 0 -129 55q-61 60 -68 141zM371 882q-7 21 -7 38q0 41 40 56q19 7 39 7q34 0 73 -19q57 -27 73 -77q21 -66 30 -140.5t13 -172.5
t9 -144q4 -43 14.5 -108.5t17 -107t10.5 -107.5q1 -20 1 -38q0 -41 -6 -71q-8 -57 -62 -57h-4q-57 2 -108 50q-47 44 -47 92q0 7 1 14q4 28 4 57.5t-4 62.5q-8 65 -23.5 141.5t-19.5 119.5q-4 42 -7 127.5t-10.5 151.5t-26.5 125zM422 1409v2v2v-4zM423 1407v3v-2v-1z
M424 1403q1 -1 1 -2v2q0 1 -1 3v1v-3v-1z" />
    <glyph glyph-name="I" unicode="&#xcd;" horiz-adv-x="880" 
d="M197 1445q-1 8 -1 15q0 46 27 81q30 40 86 40q16 0 34 -3h3q46 0 90 -27q44 -28 69 -72q22 -48 22 -97.5t-32.5 -89t-88.5 -43.5h-12q-72 0 -129 55q-61 60 -68 141zM371 882q-7 21 -7 38q0 41 40 56q19 7 39 7q34 0 73 -19q57 -27 73 -77q21 -66 30 -140.5t13 -172.5
t9 -144q4 -43 14.5 -108.5t17 -107t10.5 -107.5q1 -20 1 -38q0 -41 -6 -71q-8 -57 -62 -57h-4q-57 2 -108 50q-47 44 -47 92q0 7 1 14q4 28 4 57.5t-4 62.5q-8 65 -23.5 141.5t-19.5 119.5q-4 42 -7 127.5t-10.5 151.5t-26.5 125zM422 1409v2v2v-4zM423 1407v3v-2v-1z
M424 1403q1 -1 1 -2v2q0 1 -1 3v1v-3v-1z" />
    <glyph glyph-name="I" unicode="&#xcc;" horiz-adv-x="880" 
d="M197 1445q-1 8 -1 15q0 46 27 81q30 40 86 40q16 0 34 -3h3q46 0 90 -27q44 -28 69 -72q22 -48 22 -97.5t-32.5 -89t-88.5 -43.5h-12q-72 0 -129 55q-61 60 -68 141zM371 882q-7 21 -7 38q0 41 40 56q19 7 39 7q34 0 73 -19q57 -27 73 -77q21 -66 30 -140.5t13 -172.5
t9 -144q4 -43 14.5 -108.5t17 -107t10.5 -107.5q1 -20 1 -38q0 -41 -6 -71q-8 -57 -62 -57h-4q-57 2 -108 50q-47 44 -47 92q0 7 1 14q4 28 4 57.5t-4 62.5q-8 65 -23.5 141.5t-19.5 119.5q-4 42 -7 127.5t-10.5 151.5t-26.5 125zM422 1409v2v2v-4zM423 1407v3v-2v-1z
M424 1403q1 -1 1 -2v2q0 1 -1 3v1v-3v-1z" />
    <glyph glyph-name="J" unicode="J" horiz-adv-x="1339" 
d="M257 507q10 2 20 2l90 -33q56 -40 56 -94q0 -10 -1 -31.5t-0.5 -32.5t3 -26.5t11.5 -25.5t24 -17q49 -23 164 -23q48 0 85.5 4t80.5 16.5t72.5 40.5t40.5 71q14 54 17 116v52q0 45 -2 98q-4 88 -4 119v468q0 67 59 77q11 2 22 2q44 0 90 -32q55 -41 56 -95v-716
q0 -48 -3 -86t-12.5 -83t-26 -79.5t-46 -67t-69.5 -53.5q-110 -58 -264 -63q-17 -1 -33 -1q-133 0 -237 36q-137 42 -196 137q-57 93 -57 238q0 72 60 82z" />
    <glyph glyph-name="K" unicode="K" horiz-adv-x="1931" 
d="M198 1150q5 67 20 134q12 57 68 57h8q58 -3 106 -52q40 -41 40 -84q0 -10 -2 -20q-16 -75 -16 -169.5t6 -149t26 -178.5t24 -153q11 -79 31.5 -242t39 -289.5t39.5 -240.5q3 -14 3 -27q0 -52 -48 -70q-20 -8 -40 -8q-32 0 -68 19q-54 29 -64 81q-23 122 -42.5 257.5
t-42 309.5t-34.5 259q-4 26 -20.5 134t-21 151.5t-10.5 128.5q-4 48 -4 90q0 33 2 62zM611 423q-13 25 -13 49t14 47q47 63 108.5 126t139.5 135t120 115q21 22 86 93t103 107q15 14 48 41t56.5 50.5t39.5 48.5q30 35 72 35q11 0 23 -2q58 -12 96 -70q21 -32 21 -61
q0 -24 -14 -46q-13 -20 -32 -41t-32.5 -33.5t-40.5 -35t-37 -31.5q-41 -35 -110 -111t-80 -88q-41 -43 -139.5 -134t-146.5 -143q74 -34 210 -105.5t197 -100.5q22 -11 72 -34t76.5 -36t70 -37t71.5 -44.5t60 -50t56 -61.5q29 -39 29 -74q-1 -19 -9 -36q-24 -49 -75 -49h-3
q-54 2 -100 52q-29 38 -74 71t-83 51.5t-98 45t-90 41.5q-25 13 -121.5 63.5t-139.5 72t-118 55.5t-139 57q-47 17 -74 68z" />
    <glyph glyph-name="L" unicode="L" horiz-adv-x="1533" 
d="M203 1169q-7 16 -7 30q0 22 16 42q26 32 68 34h3q45 0 81 -28q38 -29 56 -74q26 -62 41.5 -135.5t28 -167t21.5 -140.5q6 -33 23.5 -115.5t26 -127.5t18 -112.5t13.5 -124.5q1 -14 2 -86q0 -12 1 -38q17 2 52 -1t51 -2q26 1 73 5.5t64 5.5q61 7 129 7q40 -1 84 -3
q116 -6 207 -39q64 -23 80 -79q5 -16 5 -31q0 -35 -28 -61q-23 -22 -58 -22q-23 0 -52 10q-54 19 -142 20h-15q-80 0 -157 -10q-80 -10 -167 -10h-9q-92 0 -161.5 15.5t-120 71.5t-61.5 152q-4 35 -5.5 111t-6.5 116q-8 63 -53 291q-10 52 -24 157t-31 187.5t-46 151.5z" />
    <glyph glyph-name="M" unicode="M" horiz-adv-x="2215" 
d="M201 145q11 36 13 83q1 19 1 36q0 26 -2 48q-1 16 -1 34q0 24 2 51q9 98 43 237q10 42 22.5 80.5t35 86t48.5 81.5q27 34 65 56q35 21 75 21h7q24 -1 47 -8.5t41.5 -17t38 -28t33 -33t29.5 -40.5t25.5 -41.5t24 -46t20.5 -44t19 -44t17 -39.5q56 -126 75 -198l14 -42
q2 4 5.5 12.5t5.5 12.5q18 37 54.5 104.5t51.5 97.5q21 42 63.5 134.5t78.5 162t76 126.5q55 79 128 113q36 17 75 18q39 0 80 -18q117 -51 202 -236q76 -164 119.5 -264t97 -248.5t83.5 -278.5q4 -17 4 -31q0 -48 -44 -65q-19 -7 -39 -7q-33 0 -71 19q-55 30 -68 80
q-81 344 -290 766q-2 3 -15 27t-19 35v-1l-1 -2q-6 -11 -25.5 -32.5t-25.5 -30.5q-34 -53 -66 -113.5t-71.5 -145.5t-56.5 -118q-16 -31 -48 -100.5t-59 -122.5t-56 -97q-44 -66 -112 -80q-16 -3 -32 -4l-104 34q-32 21 -56.5 50.5t-42 70t-26.5 69.5t-22 77q-26 94 -49 148
q-41 94 -52 116q0 1 -5 9t-11 17.5t-11 18.5q-1 -1 -4 -7q-20 -37 -36 -82q-25 -71 -48 -201q-8 -47 -9 -173t-22 -191q-18 -56 -75 -56q-6 0 -12 1q-60 5 -104 53q-34 36 -34 73q0 14 5 28zM1479 946z" />
    <glyph glyph-name="N" unicode="N" horiz-adv-x="1771" 
d="M197 850q0 52 23 86.5t62 45.5q3 7 7 14q17 32 50 37q8 1 15 1q24 0 50 -12q32 -16 59.5 -47.5t32.5 -65.5q75 -57 176 -172q62 -70 207.5 -272.5t244.5 -296.5q84 -82 125 -106q38 -22 59 -16q18 6 28.5 31.5t12.5 68t2 72.5t-3 76l-3 45q-4 75 -15.5 224t-14.5 224
q-11 274 -48 430q-4 17 -4 31q0 48 44 65q19 7 39 7q33 0 71 -19q55 -30 68 -80q44 -191 57 -483q3 -73 16.5 -242t15.5 -259v-28v-39q-2 -32 -6 -68.5t-11 -68t-19 -62.5t-27.5 -54.5t-38 -42t-50.5 -28.5q-25 -9 -57 -8h-7q-36 1 -78 13q-216 63 -454 367
q-42 54 -119.5 161t-116.5 157q-48 63 -109 128q7 -33 23.5 -92.5t20.5 -81.5q34 -181 34 -383q0 -60 -3 -121q-2 -44 -29 -64q-21 -15 -46 -15q-8 0 -16 1q-35 6 -69 26t-51 47q-34 53 -47 125t-18 163t-14 136q-7 35 -22 107t-23.5 117t-16 107.5t-7.5 113.5z" />
    <glyph glyph-name="O" unicode="O" horiz-adv-x="993" 
d="M197 294q-1 22 -1 45q0 69 10 134q12 86 39 160t82.5 122.5t133.5 57.5q21 16 58 16q79 -1 143.5 -34t106 -84.5t71.5 -122.5t45 -138.5t22 -141.5q5 -55 8 -101t3 -112.5t-6.5 -119.5t-23 -112t-42.5 -102t-69 -76.5t-99 -47.5q-34 -8 -68 -8q-43 -1 -86 13
q-76 24 -133.5 79t-98.5 124.5t-58 142.5q-15 62 -24 138t-13 168zM420 240q4 -96 17 -175t29 -123q18 -52 54 -84q19 -17 41 -17q19 0 40 13q35 22 56.5 66t26.5 92q5 50 7 102q1 18 1 33q0 32 -3 58q-1 13 -1 19q-7 224 -36 314q-16 49 -37 69q-13 -3 -25 -2q-7 1 -14 1
q-60 0 -96 -49q-42 -53 -53 -137q-8 -63 -8 -135q0 -22 1 -45z" />
    <glyph glyph-name="O" unicode="&#xd6;" horiz-adv-x="993" 
d="M197 294q-1 22 -1 45q0 69 10 134q12 86 39 160t82.5 122.5t133.5 57.5q21 16 58 16q79 -1 143.5 -34t106 -84.5t71.5 -122.5t45 -138.5t22 -141.5q5 -55 8 -101t3 -112.5t-6.5 -119.5t-23 -112t-42.5 -102t-69 -76.5t-99 -47.5q-34 -8 -68 -8q-43 -1 -86 13
q-76 24 -133.5 79t-98.5 124.5t-58 142.5q-15 62 -24 138t-13 168zM420 240q4 -96 17 -175t29 -123q18 -52 54 -84q19 -17 41 -17q19 0 40 13q35 22 56.5 66t26.5 92q5 50 7 102q1 18 1 33q0 32 -3 58q-1 13 -1 19q-7 224 -36 314q-16 49 -37 69q-13 -3 -25 -2q-7 1 -14 1
q-60 0 -96 -49q-42 -53 -53 -137q-8 -63 -8 -135q0 -22 1 -45z" />
    <glyph glyph-name="O" unicode="&#xd5;" horiz-adv-x="993" 
d="M197 294q-1 22 -1 45q0 69 10 134q12 86 39 160t82.5 122.5t133.5 57.5q21 16 58 16q79 -1 143.5 -34t106 -84.5t71.5 -122.5t45 -138.5t22 -141.5q5 -55 8 -101t3 -112.5t-6.5 -119.5t-23 -112t-42.5 -102t-69 -76.5t-99 -47.5q-34 -8 -68 -8q-43 -1 -86 13
q-76 24 -133.5 79t-98.5 124.5t-58 142.5q-15 62 -24 138t-13 168zM420 240q4 -96 17 -175t29 -123q18 -52 54 -84q19 -17 41 -17q19 0 40 13q35 22 56.5 66t26.5 92q5 50 7 102q1 18 1 33q0 32 -3 58q-1 13 -1 19q-7 224 -36 314q-16 49 -37 69q-13 -3 -25 -2q-7 1 -14 1
q-60 0 -96 -49q-42 -53 -53 -137q-8 -63 -8 -135q0 -22 1 -45z" />
    <glyph glyph-name="O" unicode="&#xd4;" horiz-adv-x="993" 
d="M197 294q-1 22 -1 45q0 69 10 134q12 86 39 160t82.5 122.5t133.5 57.5q21 16 58 16q79 -1 143.5 -34t106 -84.5t71.5 -122.5t45 -138.5t22 -141.5q5 -55 8 -101t3 -112.5t-6.5 -119.5t-23 -112t-42.5 -102t-69 -76.5t-99 -47.5q-34 -8 -68 -8q-43 -1 -86 13
q-76 24 -133.5 79t-98.5 124.5t-58 142.5q-15 62 -24 138t-13 168zM420 240q4 -96 17 -175t29 -123q18 -52 54 -84q19 -17 41 -17q19 0 40 13q35 22 56.5 66t26.5 92q5 50 7 102q1 18 1 33q0 32 -3 58q-1 13 -1 19q-7 224 -36 314q-16 49 -37 69q-13 -3 -25 -2q-7 1 -14 1
q-60 0 -96 -49q-42 -53 -53 -137q-8 -63 -8 -135q0 -22 1 -45z" />
    <glyph glyph-name="O" unicode="&#xd3;" horiz-adv-x="993" 
d="M197 294q-1 22 -1 45q0 69 10 134q12 86 39 160t82.5 122.5t133.5 57.5q21 16 58 16q79 -1 143.5 -34t106 -84.5t71.5 -122.5t45 -138.5t22 -141.5q5 -55 8 -101t3 -112.5t-6.5 -119.5t-23 -112t-42.5 -102t-69 -76.5t-99 -47.5q-34 -8 -68 -8q-43 -1 -86 13
q-76 24 -133.5 79t-98.5 124.5t-58 142.5q-15 62 -24 138t-13 168zM420 240q4 -96 17 -175t29 -123q18 -52 54 -84q19 -17 41 -17q19 0 40 13q35 22 56.5 66t26.5 92q5 50 7 102q1 18 1 33q0 32 -3 58q-1 13 -1 19q-7 224 -36 314q-16 49 -37 69q-13 -3 -25 -2q-7 1 -14 1
q-60 0 -96 -49q-42 -53 -53 -137q-8 -63 -8 -135q0 -22 1 -45z" />
    <glyph glyph-name="O" unicode="&#xd2;" horiz-adv-x="993" 
d="M197 294q-1 22 -1 45q0 69 10 134q12 86 39 160t82.5 122.5t133.5 57.5q21 16 58 16q79 -1 143.5 -34t106 -84.5t71.5 -122.5t45 -138.5t22 -141.5q5 -55 8 -101t3 -112.5t-6.5 -119.5t-23 -112t-42.5 -102t-69 -76.5t-99 -47.5q-34 -8 -68 -8q-43 -1 -86 13
q-76 24 -133.5 79t-98.5 124.5t-58 142.5q-15 62 -24 138t-13 168zM420 240q4 -96 17 -175t29 -123q18 -52 54 -84q19 -17 41 -17q19 0 40 13q35 22 56.5 66t26.5 92q5 50 7 102q1 18 1 33q0 32 -3 58q-1 13 -1 19q-7 224 -36 314q-16 49 -37 69q-13 -3 -25 -2q-7 1 -14 1
q-60 0 -96 -49q-42 -53 -53 -137q-8 -63 -8 -135q0 -22 1 -45z" />
    <glyph glyph-name="P" unicode="P" horiz-adv-x="1464" 
d="M197 908q12 106 85 192t175 131t208 46h7q106 0 214 -29q110 -30 208 -99t144 -166q25 -54 27 -110v-12q0 -49 -15 -92q-17 -48 -49.5 -96t-70.5 -86t-84 -72q-204 -153 -516 -182q20 -273 21 -501q0 -67 -59 -77q-10 -2 -20 -2q-45 0 -92 33q-55 40 -55 94
q-1 205 -20 474q-34 26 -53 64q-13 26 -13 50q-1 12 3 22q10 34 52 42q-4 90 -8 136q-4 47 -22 134q-68 37 -68 95q0 5 1 11zM463 938q9 -22 9 -38q0 -52 19 -147t22 -133q4 -48 5 -73q160 22 274 87q223 126 246 255q2 10 2 19q0 34 -22 62q-28 36 -78 55.5t-96.5 30
t-86.5 12.5q-13 1 -26 1q-101 0 -173 -50q-62 -42 -95 -81z" />
    <glyph glyph-name="Q" unicode="Q" horiz-adv-x="1843" 
d="M219 648q48 228 208 464q83 121 118 162q94 107 195 127q14 3 28 3q31 0 61 -14q44 -19 66 -60q15 -22 15 -51q0 -12 -3 -25q-9 -45 -51 -53q-29 -6 -58 -24t-50.5 -38.5t-48 -55t-40.5 -56.5t-38 -61.5t-32 -51.5q-140 -219 -163 -443q-4 -37 -4 -70q0 -191 134 -245
q60 -24 133 -24q123 0 284 66q51 20 119 60q-58 115 -127 193q-35 39 -35 74q0 20 12 38q26 40 82 41h2q57 0 98 -46q65 -73 124 -175q119 129 119 274q0 66 -25 136q-14 39 -37.5 65.5t-49.5 39t-63 16.5q-28 3 -51 3q-9 0 -17 -1q-31 -1 -75 -7q-61 -8 -107 -31t-77 -61
t-50.5 -82.5t-34.5 -104.5q-14 -57 -70 -57h-8q-58 4 -106 52q-39 40 -39 82q0 11 3 22q75 309 317 371q90 23 175 28h31q71 0 146 -17q91 -21 160 -72q118 -86 169 -231q33 -95 33 -193q0 -51 -9 -102q-26 -151 -119 -262q-42 -51 -101 -100l33 -78q11 -25 42 -97.5
t44.5 -104.5t40 -95t43 -105t37.5 -97t38 -104q6 -15 6 -29q0 -24 -16 -43q-25 -32 -68 -34h-3q-43 0 -82 28q-40 30 -55 74q-63 181 -221 547q-2 4 -5 12.5t-5 12.5q-133 -68 -279 -96q-83 -17 -163 -17q-58 0 -114 9q-119 18 -221 85.5t-157 169.5q-60 111 -60 262
q0 91 22 197z" />
    <glyph glyph-name="R" unicode="R" horiz-adv-x="1906" 
d="M200 988q-3 13 -3 24q0 22 10 41q51 99 148 160.5t211 78.5q69 10 141 11q46 0 94 -5q121 -11 231 -51.5t189 -99.5q159 -120 164 -246v-5q-1 -31 -11 -60q-12 -31 -29.5 -54.5t-46 -46.5t-53 -38.5t-56.5 -32.5q-139 -74 -292 -122q24 -16 71 -47.5t70 -47.5
q95 -66 269 -220q59 -52 240 -236q63 -64 103 -120.5t56 -122.5q4 -18 4 -33q0 -47 -43 -63q-19 -7 -40 -7q-33 0 -70 18q-56 29 -69 80q-7 29 -26.5 58.5t-37 48.5t-49 49t-43.5 43q-91 97 -214 203q-82 71 -244.5 183.5t-215.5 153.5q-84 -14 -177 -19q12 -64 17 -96
q10 -58 14 -157t15 -183t39 -151q7 -16 7 -30q0 -22 -16 -42q-26 -32 -68 -35h-3q-45 0 -82 28q-38 29 -56 74q-30 72 -41.5 161.5t-16.5 194.5t-15 167q-16 94 -25 141q-10 18 -13 29q-6 21 -1 44q-37 202 -37 334q0 24 1 46zM427 944q-2 -29 -1 -59q0 -99 17 -211
q208 19 489 127l26 10q27 10 39.5 15t40 17t43.5 22t35 22.5t29 25.5t11 26q1 6 -1 12t-6.5 12.5t-9 12t-12.5 11.5t-13.5 10t-15 10t-14 9t-13.5 8t-11 6q-91 52 -213 64q-30 3 -60 3q-91 0 -181 -29q-118 -38 -179 -124z" />
    <glyph glyph-name="S" unicode="S" horiz-adv-x="1529" 
d="M199 936q9 86 59.5 161.5t134.5 113.5q77 35 167 37h16q82 0 156 -24q82 -26 146.5 -87.5t87.5 -146.5q5 -19 5 -34q0 -44 -42 -61q-19 -7 -40 -7q-33 0 -70 18q-57 28 -71 79q-9 33 -51 47q-29 9 -61 10q-14 0 -28 -2q-47 -6 -82 -22q-68 -30 -92 -108q-13 -41 -12 -81
q0 -36 10 -71q7 -22 20.5 -43.5t27 -37t39 -33t40 -27t48 -25.5t44 -20.5t47.5 -19.5t41 -17q42 -18 119 -46.5t139.5 -55t115.5 -54.5q93 -50 155.5 -124.5t63.5 -166.5q0 -45 -19 -82t-53 -62.5t-70.5 -43t-79.5 -29.5q-95 -27 -224 -33q-60 -3 -113 -3q-62 0 -115 4
q-105 3 -190.5 48.5t-168.5 130.5q-30 30 -33 72v7q0 37 31 64q25 18 56 15.5t58 -16.5t47 -35q43 -43 77.5 -60t90.5 -17q160 0 239 4q81 5 160 33q76 27 76 59q0 22 -35 47q-5 4 -12 8q-76 47 -193 92.5t-208 77t-192 92t-167 140.5q-56 68 -80 158q-18 66 -17 130
q0 24 2 47z" />
    <glyph glyph-name="T" unicode="T" horiz-adv-x="1773" 
d="M206 1021q21 38 74 38q11 0 22 -2q37 -1 59 -1h18q22 1 79 11t76 12q20 2 72.5 9t79.5 10t69.5 6.5t77.5 3.5h8q99 0 265 -22q198 -27 293 -61q177 -65 177 -182q0 -19 -5 -40q-11 -47 -53 -55q-10 -2 -20 -2q-34 0 -68 20q-46 26 -68 65q-4 1 -9 3t-9 4l-3 1
q-26 9 -112 25q-107 20 -217 30q-37 3 -77 3q4 -43 4.5 -124.5t2.5 -114.5q19 -275 20 -300q3 -140 12 -242q7 -91 11 -120q4 -20 10 -35q-7 12 -30 26q36 -23 52 -67q7 -18 7 -34q0 -24 -14 -46q-17 -24 -46.5 -29.5t-56 2t-51.5 23.5q-32 20 -54.5 56.5t-34 73.5t-18 91.5
t-7.5 90.5t-1.5 91.5t-1.5 74.5q-7 187 -11 240q-2 25 -6.5 79t-7.5 95t-3 79v71q-6 -1 -49.5 -7t-53 -7.5t-48 -6t-53.5 -5.5t-47.5 -3t-53 -1.5t-47.5 2t-52 4.5q-64 8 -95 68q-16 31 -16 58q0 22 10 41zM995 -39z" />
    <glyph glyph-name="U" unicode="U" horiz-adv-x="1439" 
d="M211 472q-14 105 -14 194q0 134 32 228q18 56 76 56q6 0 12 -1q59 -5 104 -53q34 -36 34 -73q0 -14 -5 -28q-31 -86 -31 -199v-20q3 -125 24.5 -235.5t58.5 -216.5q9 -27 21 -52t30 -54.5t42.5 -47.5t50.5 -19h2q54 0 122 106q56 87 84.5 198.5t36 218t15.5 213.5t37 217
t86 196q19 28 53 34q9 1 17 2q25 0 49 -12q32 -16 59 -42.5t33 -60.5q2 -8 2 -17q0 -25 -14 -48q-47 -71 -70.5 -166.5t-26.5 -175.5t-9.5 -186.5t-21.5 -176.5q-78 -371 -269 -476q-67 -34 -132 -34q-15 0 -31 2q-80 10 -152 61t-126 119t-85 142q-58 137 -94 407z" />
    <glyph glyph-name="U" unicode="&#xdb;" horiz-adv-x="1439" 
d="M211 472q-14 105 -14 194q0 134 32 228q18 56 76 56q6 0 12 -1q59 -5 104 -53q34 -36 34 -73q0 -14 -5 -28q-31 -86 -31 -199v-20q3 -125 24.5 -235.5t58.5 -216.5q9 -27 21 -52t30 -54.5t42.5 -47.5t50.5 -19h2q54 0 122 106q56 87 84.5 198.5t36 218t15.5 213.5t37 217
t86 196q19 28 53 34q9 1 17 2q25 0 49 -12q32 -16 59 -42.5t33 -60.5q2 -8 2 -17q0 -25 -14 -48q-47 -71 -70.5 -166.5t-26.5 -175.5t-9.5 -186.5t-21.5 -176.5q-78 -371 -269 -476q-67 -34 -132 -34q-15 0 -31 2q-80 10 -152 61t-126 119t-85 142q-58 137 -94 407z" />
    <glyph glyph-name="U" unicode="&#xda;" horiz-adv-x="1439" 
d="M211 472q-14 105 -14 194q0 134 32 228q18 56 76 56q6 0 12 -1q59 -5 104 -53q34 -36 34 -73q0 -14 -5 -28q-31 -86 -31 -199v-20q3 -125 24.5 -235.5t58.5 -216.5q9 -27 21 -52t30 -54.5t42.5 -47.5t50.5 -19h2q54 0 122 106q56 87 84.5 198.5t36 218t15.5 213.5t37 217
t86 196q19 28 53 34q9 1 17 2q25 0 49 -12q32 -16 59 -42.5t33 -60.5q2 -8 2 -17q0 -25 -14 -48q-47 -71 -70.5 -166.5t-26.5 -175.5t-9.5 -186.5t-21.5 -176.5q-78 -371 -269 -476q-67 -34 -132 -34q-15 0 -31 2q-80 10 -152 61t-126 119t-85 142q-58 137 -94 407z" />
    <glyph glyph-name="U" unicode="&#xd9;" horiz-adv-x="1439" 
d="M211 472q-14 105 -14 194q0 134 32 228q18 56 76 56q6 0 12 -1q59 -5 104 -53q34 -36 34 -73q0 -14 -5 -28q-31 -86 -31 -199v-20q3 -125 24.5 -235.5t58.5 -216.5q9 -27 21 -52t30 -54.5t42.5 -47.5t50.5 -19h2q54 0 122 106q56 87 84.5 198.5t36 218t15.5 213.5t37 217
t86 196q19 28 53 34q9 1 17 2q25 0 49 -12q32 -16 59 -42.5t33 -60.5q2 -8 2 -17q0 -25 -14 -48q-47 -71 -70.5 -166.5t-26.5 -175.5t-9.5 -186.5t-21.5 -176.5q-78 -371 -269 -476q-67 -34 -132 -34q-15 0 -31 2q-80 10 -152 61t-126 119t-85 142q-58 137 -94 407z" />
    <glyph glyph-name="V" unicode="V" horiz-adv-x="1544" 
d="M198 765q-1 14 -1 29q1 34 7 72q10 54 37 98q19 28 53 34q9 1 17 2q25 0 49 -12q32 -16 59 -42.5t33 -60.5q1 -8 1 -16q0 -26 -14 -49q-10 -15 -15 -34.5t-4 -42.5t3.5 -43.5t11.5 -48.5t15 -47t19.5 -48t19.5 -42.5t19.5 -41t15.5 -32.5q15 -30 35 -65t35.5 -58.5
t41 -62.5t38.5 -59q23 -36 46 -81q7 17 21 54.5t22 57.5q14 36 40 104t48 122.5t44 102.5q14 31 60.5 129t68 147t48.5 129t38 149q-19 28 -19 54q0 25 18 48q16 18 25 38q18 35 55 37h8q33 0 63 -18q34 -20 61 -52q25 -32 25 -61q0 -53 -14 -129q-12 -66 -25.5 -113.5
t-42.5 -120.5t-44 -108.5t-53.5 -118t-50.5 -109.5q-33 -75 -81.5 -213t-96.5 -251t-109 -198q-24 -34 -65 -34t-77 23t-54 54q-26 45 -88 170t-105 190q-91 134 -146 262q-25 58 -40 95.5t-33.5 100.5t-22.5 110z" />
    <glyph glyph-name="W" unicode="W" horiz-adv-x="2230" 
d="M203 966q-7 22 -7 39q0 39 38 54q19 7 40 7q33 0 72 -18q58 -28 75 -77q30 -88 108.5 -265.5t108.5 -272.5q11 -33 21.5 -70.5t22.5 -83.5t19 -71q8 21 26.5 76t33.5 93t32 72q57 112 83 148q67 95 149 95q26 0 54 -10q77 -27 147.5 -76.5t133.5 -119.5t109.5 -132.5
t104.5 -151.5q54 255 73 324q13 46 36.5 136t39 145.5t38.5 132t46 139.5q29 55 85 55h1q57 0 105 -51q35 -36 35 -73q0 -15 -5 -30q-23 -63 -46 -139.5t-38.5 -132t-39 -145.5t-36.5 -136q-24 -87 -61 -268.5t-63 -272.5q-14 -49 -58 -54q-7 -1 -14 -1q-36 1 -72 21
q-42 24 -64 55q-32 45 -107 157.5t-118 170.5q-74 99 -133 157q-37 35 -58 51l-35 20l-2 -2t-1 -2q-27 -36 -49 -74q-51 -88 -85 -180q-9 -24 -30 -86t-33.5 -94.5t-36.5 -79.5t-51 -82q-25 -32 -66 -33h-3q-40 0 -74 22q-36 22 -53 54q-31 54 -57.5 122t-41.5 116.5
t-38.5 133t-35.5 123.5q-31 104 -113 290.5t-112 274.5z" />
    <glyph glyph-name="X" unicode="X" horiz-adv-x="1839" 
d="M204 -118q-5 16 -6 31q0 36 31 68q136 105 251.5 236t257.5 320q-20 24 -60 73.5t-60 74.5q-12 16 -48 71.5t-68.5 92t-65.5 48.5q-64 23 -80 79q-5 16 -5 31q1 37 29 63q23 22 57 21q23 0 52 -10q27 -10 54 -27.5t45.5 -33t45 -46t38 -44.5t39 -51t33.5 -45
q36 -47 112 -141q109 143 195.5 245.5t183.5 190.5q18 16 41.5 19.5t46 -5t44 -23.5t35.5 -37t21 -44.5t0.5 -46t-26.5 -42.5q-165 -151 -385 -444q5 -5 14.5 -17t14.5 -17q46 -54 115 -111t133.5 -104.5t129 -99t120 -115t88.5 -132.5q15 -31 15 -55q0 -34 -29 -55
q-26 -20 -60 -20q-19 0 -40 6q-57 16 -81 67q-9 19 -22.5 38.5t-23.5 33.5t-31 34t-29.5 29t-35.5 30t-32.5 25.5t-37.5 28t-34 24.5q-94 69 -159 124t-121 118q-2 2 -5.5 6t-5.5 6q-89 -119 -154.5 -200t-160 -178.5t-188.5 -169.5q-24 -18 -52 -18q-26 0 -56 14
q-62 30 -80 84z" />
    <glyph glyph-name="Y" unicode="Y" horiz-adv-x="1980" 
d="M199 1093q-3 13 -3 25q0 38 26 61q20 18 48 18q26 0 58 -15q59 -28 112.5 -84t88 -110.5t81 -117t88.5 -96.5q18 -15 105 -78t131 -104q19 25 40.5 49.5t50 52t45 43t54 48t47.5 41.5q74 66 210.5 208t210.5 207q18 16 42 19.5t46 -5t43.5 -24t36 -37t21 -44t0 -46.5
t-26.5 -42q-69 -62 -194.5 -193t-190.5 -190q-17 -16 -71.5 -62.5t-82.5 -72.5t-64.5 -70.5t-56.5 -85.5q106 -360 159 -606q3 -16 3 -30q0 -49 -45 -66q-19 -7 -40 -7q-33 0 -69 18q-54 30 -66 81q-46 217 -148 563q-27 24 -41 62q0 1 -3 6q-5 12 -6 25q1 -6 3 -14t2 -9
q-1 1 -5 3q-5 2 -21 19.5t-17 18.5q-31 28 -73 62q-24 20 -86 68t-95 76q-74 63 -144 165q-7 11 -34 57.5t-50 78t-43 40.5q-64 30 -76 94zM843 411q1 -1 1 -2l3 -6z" />
    <glyph glyph-name="Z" unicode="Z" horiz-adv-x="2199" 
d="M198 1138q11 47 77 47q127 -1 391 -22q252 -20 389 -20h13h3q39 0 79 -27q42 -28 58 -67q7 -16 6 -32q0 -24 -15 -50q-58 -83 -102.5 -175t-100.5 -235.5t-75 -188.5q-20 -45 -65.5 -145t-67.5 -153q-9 -21 -24 -61l-18 -48q22 1 40 5q62 15 132 39q15 5 71.5 24.5
t93.5 30.5t74 19q283 57 703 59h2q61 0 107 -60q33 -42 33 -80q0 -10 -2 -20q-11 -48 -77 -48q-251 -2 -443.5 -21t-365.5 -77q-14 -5 -57.5 -20t-65.5 -22t-65.5 -20.5t-70.5 -17.5t-67 -10q-27 -4 -50 -4q-10 0 -20 1q-30 3 -63.5 9t-62.5 22t-54 39q-28 26 -40.5 53.5
t-9.5 60t10 56.5t22 64q52 138 154 364q31 69 104 254t122 281q-57 4 -175.5 13.5t-210.5 15t-176 5.5q-61 1 -108 61q-34 43 -34 82q0 9 2 19z" />
    <glyph glyph-name="a" unicode="a" horiz-adv-x="1454" 
d="M197 -121q27 228 153 561q-85 42 -85 114q1 42 35 66q22 16 47 16q14 0 28 -5l42 -12q44 122 110.5 348.5t90.5 301.5q11 33 41 45q20 8 43 9q11 0 23 -2q4 -1 13 -2t13 -2q37 -6 68.5 -34.5t43.5 -64.5q161 -480 325 -862q18 -17 39 -43q30 -39 30 -73q0 -13 -4 -25
q37 -74 108 -204t125.5 -239.5t93.5 -211.5q6 -15 6 -29q0 -23 -16 -43q-25 -32 -67 -34h-3q-44 0 -82 28q-40 30 -56 74q-53 140 -183.5 381.5t-166.5 317.5q-26 16 -63.5 30.5t-59.5 21t-73 18t-59 13.5q-57 14 -173 38q-45 -116 -69.5 -183.5t-52.5 -170.5t-38 -191
q-8 -67 -68 -77q-12 -2 -24 -2q-46 0 -88 32q-47 35 -48 82q0 7 1 13zM654 563q101 -21 171 -40q43 -12 84 -25q-84 208 -153 398q-62 -218 -102 -333z" />
    <glyph glyph-name="a" unicode="&#xe4;" horiz-adv-x="1454" 
d="M197 -121q27 228 153 561q-85 42 -85 114q1 42 35 66q22 16 47 16q14 0 28 -5l42 -12q44 122 110.5 348.5t90.5 301.5q11 33 41 45q20 8 43 9q11 0 23 -2q4 -1 13 -2t13 -2q37 -6 68.5 -34.5t43.5 -64.5q161 -480 325 -862q18 -17 39 -43q30 -39 30 -73q0 -13 -4 -25
q37 -74 108 -204t125.5 -239.5t93.5 -211.5q6 -15 6 -29q0 -23 -16 -43q-25 -32 -67 -34h-3q-44 0 -82 28q-40 30 -56 74q-53 140 -183.5 381.5t-166.5 317.5q-26 16 -63.5 30.5t-59.5 21t-73 18t-59 13.5q-57 14 -173 38q-45 -116 -69.5 -183.5t-52.5 -170.5t-38 -191
q-8 -67 -68 -77q-12 -2 -24 -2q-46 0 -88 32q-47 35 -48 82q0 7 1 13zM654 563q101 -21 171 -40q43 -12 84 -25q-84 208 -153 398q-62 -218 -102 -333z" />
    <glyph glyph-name="a" unicode="&#xe3;" horiz-adv-x="1454" 
d="M197 -121q27 228 153 561q-85 42 -85 114q1 42 35 66q22 16 47 16q14 0 28 -5l42 -12q44 122 110.5 348.5t90.5 301.5q11 33 41 45q20 8 43 9q11 0 23 -2q4 -1 13 -2t13 -2q37 -6 68.5 -34.5t43.5 -64.5q161 -480 325 -862q18 -17 39 -43q30 -39 30 -73q0 -13 -4 -25
q37 -74 108 -204t125.5 -239.5t93.5 -211.5q6 -15 6 -29q0 -23 -16 -43q-25 -32 -67 -34h-3q-44 0 -82 28q-40 30 -56 74q-53 140 -183.5 381.5t-166.5 317.5q-26 16 -63.5 30.5t-59.5 21t-73 18t-59 13.5q-57 14 -173 38q-45 -116 -69.5 -183.5t-52.5 -170.5t-38 -191
q-8 -67 -68 -77q-12 -2 -24 -2q-46 0 -88 32q-47 35 -48 82q0 7 1 13zM654 563q101 -21 171 -40q43 -12 84 -25q-84 208 -153 398q-62 -218 -102 -333z" />
    <glyph glyph-name="a" unicode="&#xe2;" horiz-adv-x="1454" 
d="M197 -121q27 228 153 561q-85 42 -85 114q1 42 35 66q22 16 47 16q14 0 28 -5l42 -12q44 122 110.5 348.5t90.5 301.5q11 33 41 45q20 8 43 9q11 0 23 -2q4 -1 13 -2t13 -2q37 -6 68.5 -34.5t43.5 -64.5q161 -480 325 -862q18 -17 39 -43q30 -39 30 -73q0 -13 -4 -25
q37 -74 108 -204t125.5 -239.5t93.5 -211.5q6 -15 6 -29q0 -23 -16 -43q-25 -32 -67 -34h-3q-44 0 -82 28q-40 30 -56 74q-53 140 -183.5 381.5t-166.5 317.5q-26 16 -63.5 30.5t-59.5 21t-73 18t-59 13.5q-57 14 -173 38q-45 -116 -69.5 -183.5t-52.5 -170.5t-38 -191
q-8 -67 -68 -77q-12 -2 -24 -2q-46 0 -88 32q-47 35 -48 82q0 7 1 13zM654 563q101 -21 171 -40q43 -12 84 -25q-84 208 -153 398q-62 -218 -102 -333z" />
    <glyph glyph-name="a" unicode="&#xe1;" horiz-adv-x="1454" 
d="M197 -121q27 228 153 561q-85 42 -85 114q1 42 35 66q22 16 47 16q14 0 28 -5l42 -12q44 122 110.5 348.5t90.5 301.5q11 33 41 45q20 8 43 9q11 0 23 -2q4 -1 13 -2t13 -2q37 -6 68.5 -34.5t43.5 -64.5q161 -480 325 -862q18 -17 39 -43q30 -39 30 -73q0 -13 -4 -25
q37 -74 108 -204t125.5 -239.5t93.5 -211.5q6 -15 6 -29q0 -23 -16 -43q-25 -32 -67 -34h-3q-44 0 -82 28q-40 30 -56 74q-53 140 -183.5 381.5t-166.5 317.5q-26 16 -63.5 30.5t-59.5 21t-73 18t-59 13.5q-57 14 -173 38q-45 -116 -69.5 -183.5t-52.5 -170.5t-38 -191
q-8 -67 -68 -77q-12 -2 -24 -2q-46 0 -88 32q-47 35 -48 82q0 7 1 13zM654 563q101 -21 171 -40q43 -12 84 -25q-84 208 -153 398q-62 -218 -102 -333z" />
    <glyph glyph-name="a" unicode="&#xe0;" horiz-adv-x="1454" 
d="M197 -121q27 228 153 561q-85 42 -85 114q1 42 35 66q22 16 47 16q14 0 28 -5l42 -12q44 122 110.5 348.5t90.5 301.5q11 33 41 45q20 8 43 9q11 0 23 -2q4 -1 13 -2t13 -2q37 -6 68.5 -34.5t43.5 -64.5q161 -480 325 -862q18 -17 39 -43q30 -39 30 -73q0 -13 -4 -25
q37 -74 108 -204t125.5 -239.5t93.5 -211.5q6 -15 6 -29q0 -23 -16 -43q-25 -32 -67 -34h-3q-44 0 -82 28q-40 30 -56 74q-53 140 -183.5 381.5t-166.5 317.5q-26 16 -63.5 30.5t-59.5 21t-73 18t-59 13.5q-57 14 -173 38q-45 -116 -69.5 -183.5t-52.5 -170.5t-38 -191
q-8 -67 -68 -77q-12 -2 -24 -2q-46 0 -88 32q-47 35 -48 82q0 7 1 13zM654 563q101 -21 171 -40q43 -12 84 -25q-84 208 -153 398q-62 -218 -102 -333z" />
    <glyph glyph-name="b" unicode="b" horiz-adv-x="1843" 
d="M202 -19q10 29 12 68q2 24 1 46q-1 13 -1 25q-1 14 0 29q0 20 1 41q5 75 5 183q0 36 -1 76q-1 93 -6.5 293.5t-6.5 305.5v7q-10 20 -10 39q0 26 18 49q91 118 217.5 197.5t267.5 99.5q38 5 75 5q86 -1 166 -29q114 -42 165 -146q31 -64 31 -136q0 -166 -161 -380
q49 4 96 4q149 0 272 -43q50 -18 100.5 -46.5t97.5 -69.5t74 -88t31 -102v-11q0 -50 -32 -101q-31 -50 -83.5 -98t-100 -78.5t-114 -73t-104.5 -70.5q-56 -42 -98 -70t-101.5 -56.5t-109.5 -36.5q-22 -4 -45 -4q-30 0 -64 6q-60 11 -114 47q-56 38 -56 90v7q4 56 53 72
q16 6 34 6q36 0 79 -24q5 -3 13 -3q35 0 130 62q25 15 50.5 33.5t57.5 43t48 36.5t122 80.5t154 114.5q38 36 45 48q12 24 -11 48q-45 48 -176 67q-51 7 -104 7q-71 0 -144 -13q-127 -23 -293 -74q-28 -9 -61 0t-58 31t-41 49t-11.5 57t32.5 53q148 122 270 307
q86 131 92 222q1 20 -4.5 34t-19.5 19t-26.5 7t-35 -1.5t-34.5 -6t-35 -8.5q-3 -1 -4 -1q-181 -46 -316 -205q3 -11 3 -21q1 -106 7 -319t6 -319q0 -29 -8 -277v-35.5v-32.5v-14q0 -25 -2 -54q-4 -37 -13 -67q-17 -57 -75 -57q-6 0 -11 1q-59 6 -105 54q-34 36 -34 74
q0 14 4 27z" />
    <glyph glyph-name="c" unicode="c" horiz-adv-x="1740" 
d="M197 102q-1 20 -1 40q0 79 21 159q83 348 475 706q173 159 349 168q17 1 35 1q72 0 152 -16q100 -20 181 -61q63 -7 109 -67q26 -35 26 -68q0 -24 -14 -46q-1 -1 -2.5 -3.5t-2.5 -4.5q-15 -25 -45 -30.5t-58.5 3t-50.5 23.5q-57 40 -157 55q-41 6 -78 6q-50 0 -89 -12
q-65 -20 -122.5 -65.5t-123.5 -114.5q-63 -66 -109.5 -119.5t-96.5 -121t-86 -139t-58 -145.5q-14 -46 -22 -98q-6 -38 -5 -79v-32q3 -59 20 -105q16 -46 58 -74q37 -25 92 -24h16q49 3 101 23t126.5 62.5t91.5 50.5q21 10 115 65.5t148 72.5q15 5 30 5q43 0 88 -38
q54 -47 54 -99q0 -50 -56 -68q-40 -13 -110 -56t-91 -53q-25 -12 -70.5 -35t-83 -41.5t-71.5 -34.5q-124 -59 -235 -59q-71 0 -135 24q-101 38 -172 107t-103.5 153.5t-39.5 184.5z" />
    <glyph glyph-name="d" unicode="d" horiz-adv-x="1679" 
d="M197 1053.5q0 34.5 4 63.5t11 58q10 45 50 55q12 3 25 2q27 0 55 -14q50 14 106 14q3 0 6 1q52 -1 98 -9q48 -8 109 -26.5t104 -35.5t104 -41.5t97 -37.5q176 -63 218 -82q192 -85 258 -211q25 -48 34 -104q5 -30 5 -60q0 -240 -325 -456q-31 -20 -125.5 -82t-138 -92.5
t-116.5 -84t-128.5 -104.5t-105.5 -107q-23 -26 -58 -30q-7 -1 -13 0q-27 0 -53 12q-32 14 -58.5 38.5t-33 55t8.5 57.5q-35 25 -53 59q-12 23 -13 42q0 10 3 19q-5 18 -14.5 52.5t-15.5 56t-12.5 52t-9.5 57.5q-12 97 -12 342q0 35 2 113q1 58 1 105q-1 17 -1 31
q0 58 -4 112q-1 16 -4 59t-4 64.5t-1 56zM422 1008v-21q0 -40 5 -101q7 -79 8 -104v-318q0 -235 10 -324q5 -50 37 -157q137 123 330 250q30 19 92 56t103 64t90.5 65.5t85 82t55.5 92.5q18 36 18 80v18q-4 55 -43 86q-33 27 -78.5 46.5t-118 41.5t-87.5 28
q-28 10 -73.5 29.5t-82 35t-84 32t-87.5 24.5q-38 10 -82 10h-4q-41 0 -76 -12q-6 -2 -18 -4z" />
    <glyph glyph-name="e" unicode="e" horiz-adv-x="1599" 
d="M197 122q-1 26 -1 59q0 82 4 204q5 172 5 206q0 24 1 90t1.5 100t2 88t4 99.5t6.5 89.5q16 174 216 312q149 103 328 103q17 0 35 -1q74 -4 226 -35.5t233 -33.5q46 -1 87.5 -29.5t53.5 -72.5q4 -13 4 -26q0 -27 -16 -49q-22 -33 -64 -32h-2q-68 2 -174 22t-184 36
q-51 10 -109 10q-31 0 -64 -2q-95 -8 -169 -54q-71 -44 -128 -113q-31 -39 -39.5 -74.5t-8.5 -95.5q0 -23 -11 -279q21 18 53 22q25 4 78 12t84.5 12t76.5 9t83 6q16 1 37 1q51 0 130.5 -4t130.5 -4q21 0 37 1h4q59 0 105 -57q33 -42 33 -81q0 -10 -2 -20q-11 -47 -77 -50
q-16 -1 -37 -1q-51 0 -130.5 4t-130.5 4q-21 0 -37 -1q-49 -2 -98.5 -7.5t-126 -17.5t-97.5 -15q-8 -1 -15 -1q-27 0 -52 14q-32 18 -52 50q-1 -43 -3.5 -178.5t-3.5 -209.5q0 -3 -2.5 -34.5t-1.5 -55t9 -31.5q3 -4 53 3.5t74 13.5q54 14 169.5 58.5t180.5 57.5
q67 14 135 14q124 0 248 -47q63 -24 79 -81q4 -16 4 -31q0 -37 -28 -63q-22 -21 -54 -20q-24 0 -54 11q-64 24 -134 24q-8 -1 -14 -1q-78 -2 -145.5 -26t-144.5 -51t-145 -49q-66 -21 -143 -21q-2 1 -4 1q-78 0 -149 32q-156 70 -160 286z" />
    <glyph glyph-name="e" unicode="&#xea;" horiz-adv-x="1599" 
d="M197 122q-1 26 -1 59q0 82 4 204q5 172 5 206q0 24 1 90t1.5 100t2 88t4 99.5t6.5 89.5q16 174 216 312q149 103 328 103q17 0 35 -1q74 -4 226 -35.5t233 -33.5q46 -1 87.5 -29.5t53.5 -72.5q4 -13 4 -26q0 -27 -16 -49q-22 -33 -64 -32h-2q-68 2 -174 22t-184 36
q-51 10 -109 10q-31 0 -64 -2q-95 -8 -169 -54q-71 -44 -128 -113q-31 -39 -39.5 -74.5t-8.5 -95.5q0 -23 -11 -279q21 18 53 22q25 4 78 12t84.5 12t76.5 9t83 6q16 1 37 1q51 0 130.5 -4t130.5 -4q21 0 37 1h4q59 0 105 -57q33 -42 33 -81q0 -10 -2 -20q-11 -47 -77 -50
q-16 -1 -37 -1q-51 0 -130.5 4t-130.5 4q-21 0 -37 -1q-49 -2 -98.5 -7.5t-126 -17.5t-97.5 -15q-8 -1 -15 -1q-27 0 -52 14q-32 18 -52 50q-1 -43 -3.5 -178.5t-3.5 -209.5q0 -3 -2.5 -34.5t-1.5 -55t9 -31.5q3 -4 53 3.5t74 13.5q54 14 169.5 58.5t180.5 57.5
q67 14 135 14q124 0 248 -47q63 -24 79 -81q4 -16 4 -31q0 -37 -28 -63q-22 -21 -54 -20q-24 0 -54 11q-64 24 -134 24q-8 -1 -14 -1q-78 -2 -145.5 -26t-144.5 -51t-145 -49q-66 -21 -143 -21q-2 1 -4 1q-78 0 -149 32q-156 70 -160 286z" />
    <glyph glyph-name="e" unicode="&#xe9;" horiz-adv-x="1599" 
d="M197 122q-1 26 -1 59q0 82 4 204q5 172 5 206q0 24 1 90t1.5 100t2 88t4 99.5t6.5 89.5q16 174 216 312q149 103 328 103q17 0 35 -1q74 -4 226 -35.5t233 -33.5q46 -1 87.5 -29.5t53.5 -72.5q4 -13 4 -26q0 -27 -16 -49q-22 -33 -64 -32h-2q-68 2 -174 22t-184 36
q-51 10 -109 10q-31 0 -64 -2q-95 -8 -169 -54q-71 -44 -128 -113q-31 -39 -39.5 -74.5t-8.5 -95.5q0 -23 -11 -279q21 18 53 22q25 4 78 12t84.5 12t76.5 9t83 6q16 1 37 1q51 0 130.5 -4t130.5 -4q21 0 37 1h4q59 0 105 -57q33 -42 33 -81q0 -10 -2 -20q-11 -47 -77 -50
q-16 -1 -37 -1q-51 0 -130.5 4t-130.5 4q-21 0 -37 -1q-49 -2 -98.5 -7.5t-126 -17.5t-97.5 -15q-8 -1 -15 -1q-27 0 -52 14q-32 18 -52 50q-1 -43 -3.5 -178.5t-3.5 -209.5q0 -3 -2.5 -34.5t-1.5 -55t9 -31.5q3 -4 53 3.5t74 13.5q54 14 169.5 58.5t180.5 57.5
q67 14 135 14q124 0 248 -47q63 -24 79 -81q4 -16 4 -31q0 -37 -28 -63q-22 -21 -54 -20q-24 0 -54 11q-64 24 -134 24q-8 -1 -14 -1q-78 -2 -145.5 -26t-144.5 -51t-145 -49q-66 -21 -143 -21q-2 1 -4 1q-78 0 -149 32q-156 70 -160 286z" />
    <glyph glyph-name="e" unicode="&#xe8;" horiz-adv-x="1599" 
d="M197 122q-1 26 -1 59q0 82 4 204q5 172 5 206q0 24 1 90t1.5 100t2 88t4 99.5t6.5 89.5q16 174 216 312q149 103 328 103q17 0 35 -1q74 -4 226 -35.5t233 -33.5q46 -1 87.5 -29.5t53.5 -72.5q4 -13 4 -26q0 -27 -16 -49q-22 -33 -64 -32h-2q-68 2 -174 22t-184 36
q-51 10 -109 10q-31 0 -64 -2q-95 -8 -169 -54q-71 -44 -128 -113q-31 -39 -39.5 -74.5t-8.5 -95.5q0 -23 -11 -279q21 18 53 22q25 4 78 12t84.5 12t76.5 9t83 6q16 1 37 1q51 0 130.5 -4t130.5 -4q21 0 37 1h4q59 0 105 -57q33 -42 33 -81q0 -10 -2 -20q-11 -47 -77 -50
q-16 -1 -37 -1q-51 0 -130.5 4t-130.5 4q-21 0 -37 -1q-49 -2 -98.5 -7.5t-126 -17.5t-97.5 -15q-8 -1 -15 -1q-27 0 -52 14q-32 18 -52 50q-1 -43 -3.5 -178.5t-3.5 -209.5q0 -3 -2.5 -34.5t-1.5 -55t9 -31.5q3 -4 53 3.5t74 13.5q54 14 169.5 58.5t180.5 57.5
q67 14 135 14q124 0 248 -47q63 -24 79 -81q4 -16 4 -31q0 -37 -28 -63q-22 -21 -54 -20q-24 0 -54 11q-64 24 -134 24q-8 -1 -14 -1q-78 -2 -145.5 -26t-144.5 -51t-145 -49q-66 -21 -143 -21q-2 1 -4 1q-78 0 -149 32q-156 70 -160 286z" />
    <glyph glyph-name="f" unicode="f" horiz-adv-x="1605" 
d="M197 922q-1 43 -1 102.5t1 137.5q0 37 18.5 56.5t48.5 21.5q142 92 382 123q79 10 166.5 32.5t144.5 41.5t160 56q17 6 34 6q41 0 83 -35q51 -44 54 -97v-5q0 -49 -55 -69q-21 -7 -82 -29.5t-90 -32.5t-78.5 -25.5t-92 -24.5t-85.5 -15q-77 -10 -106 -14.5t-88 -17
t-102.5 -30.5t-85.5 -45q-1 -53 -1 -101q0 -121 4 -210q139 103 256 130q66 15 146 18q30 1 58 1q45 0 84 -3q63 -5 150 -12t144 -8q46 -1 87 -29.5t53 -72.5q4 -14 4 -27q0 -26 -16 -48q-21 -32 -62 -32h-3q-52 1 -129.5 7.5t-135.5 12.5q-51 5 -111 5h-21q-72 -1 -131 -13
q-38 -8 -74 -22.5t-76.5 -41.5t-62.5 -43t-70 -55t-60 -49q5 -28 11 -59t13.5 -68.5t11.5 -58.5q2 -9 7.5 -38t9.5 -45q4 -17 10 -29q-6 9 -22 25q30 -30 33 -73v-6q0 -38 -31 -64q-25 -19 -56 -16t-57.5 17t-47.5 35q-11 11 -20 25t-15 34t-9 31t-8 37t-6 31
q-27 126 -44 226q-19 108 -28.5 238t-10.5 214zM519 168z" />
    <glyph glyph-name="g" unicode="g" horiz-adv-x="1718" 
d="M197 293q7 223 92.5 437.5t232.5 394.5q185 228 328 228h1q70 0 126 -45t84.5 -107.5t36.5 -131.5q1 -5 1 -10q0 -35 -33 -54q-28 -15 -57 -15q-11 0 -22 2q-46 9 -78.5 44t-37.5 81q0 1 -0.5 2t-0.5 2q-8 -6 -10 -8q-54 -41 -97 -84q-12 -12 -24.5 -26t-22.5 -26.5
t-22.5 -29.5t-20 -28t-20 -31t-18 -29t-18.5 -31.5t-17 -30t-18 -32t-17 -30.5q-142 -256 -142 -536q0 -65 5 -111q1 -11 8.5 -36t9.5 -37q11 10 49 34.5t43 28.5q31 28 132 127.5t172.5 159t150.5 105.5q-34 -8 -51 -13q-15 -5 -30 -5l-88 39q-54 47 -54 98q0 50 56 68
q169 50 291 50q234 0 289 -188q12 -43 16 -102q3 -39 3 -74q0 -17 -1 -33t-1 -33q0 -34 3 -71q16 -217 89 -391q7 -16 7 -30q0 -23 -16 -42q-26 -32 -68 -34h-3q-44 0 -81 28q-37 29 -56 74q-87 207 -103 528q-7 -29 -36 -46q-163 -95 -358 -295q-5 -5 -27.5 -29
t-30.5 -31.5t-30 -29t-33.5 -30t-32.5 -25t-37 -24t-36.5 -17t-41 -13.5t-41.5 -4h-9q-69 0 -122 31q-56 33 -87 84.5t-49.5 122t-23.5 132.5q-4 44 -4 91q0 18 1 37zM1174 499q3 -8 1 -16q6 -1 16 -7q-1 8 -1 25q-2 -1 -7.5 -1t-8.5 -1zM1188 506q1 -3 2 -4v6q0 16 -1 15
q-4 -3 -1 -17z" />
    <glyph glyph-name="h" unicode="h" horiz-adv-x="1519" 
d="M214 1089q-18 32 -18 58q0 30 26 50q26 19 60 19q20 0 42 -6q58 -15 85 -63q26 -46 40 -96.5t26 -127t18 -103.5q52 -237 64 -316q25 15 93 63.5t108 68.5q157 77 286 100q-15 200 -15 399q0 67 59 77q11 2 22 2q44 0 90 -32q55 -41 56 -95q2 -354 43 -674
q16 -121 21 -209q2 -30 2 -61q0 -64 -7 -137q-10 -110 -42 -204q-28 -56 -84 -56h-1q-56 0 -105 52q-36 37 -36 75q0 14 5 28q24 71 34 143q8 56 9 121q0 19 -1 39q-3 88 -8 139.5t-18 155.5q0 3 -1 8.5t-1 8.5q-117 -33 -216 -98q-16 -10 -76.5 -53.5t-101.5 -65.5t-86 -35
q17 -137 25 -193q2 -13 8 -45.5t9 -53.5t2.5 -49t-7.5 -48q-20 -55 -77 -55q-7 0 -14 1q-60 6 -103 54q-32 34 -32 70q0 14 5 29q-2 -6 -3 5q-1 7 -1.5 28.5t-1.5 27.5q-4 34 -14 102q-7 47 -13.5 99.5t-14 116.5t-11.5 99q-13 109 -64 346q-6 29 -14 92t-19 112.5t-32 86.5
z" />
    <glyph glyph-name="i" unicode="i" horiz-adv-x="825" 
d="M204 1834q6 26 11 40.5t16.5 45.5t15.5 42q3 20 16 37q24 33 66 33h2q41 0 75 -22q36 -22 58 -60q14 -24 13 -47q0 -13 -4 -26q-5 -15 -17 -42.5t-14 -33.5q-5 -12 -13 -36q-4 -14 -5 -21l-1 1v-8q-3 -67 -62 -77q-11 -2 -22 -2l-88 32q-54 39 -54 91q0 23 7 53zM295 981
q-6 20 -6 36q0 43 42 59q19 7 40 7q33 0 71 -18q57 -28 71 -79q19 -67 34 -151.5t20.5 -129t16.5 -162.5t13 -139q3 -30 12.5 -108.5t12.5 -118.5q3 -39 5 -103v-24q-1 -50 -7 -94q-8 -54 -25 -107q-18 -56 -75 -56q-6 0 -12 1q-61 5 -105 53q-34 35 -34 72q0 14 5 28
q19 59 24 131q3 42 3 75q1 23 -1 41q-4 44 -15.5 136.5t-14.5 121.5q-3 27 -12 127.5t-14.5 145t-18.5 120t-30 136.5z" />
    <glyph glyph-name="i" unicode="&#xee;" horiz-adv-x="825" 
d="M204 1834q6 26 11 40.5t16.5 45.5t15.5 42q3 20 16 37q24 33 66 33h2q41 0 75 -22q36 -22 58 -60q14 -24 13 -47q0 -13 -4 -26q-5 -15 -17 -42.5t-14 -33.5q-5 -12 -13 -36q-4 -14 -5 -21l-1 1v-8q-3 -67 -62 -77q-11 -2 -22 -2l-88 32q-54 39 -54 91q0 23 7 53zM295 981
q-6 20 -6 36q0 43 42 59q19 7 40 7q33 0 71 -18q57 -28 71 -79q19 -67 34 -151.5t20.5 -129t16.5 -162.5t13 -139q3 -30 12.5 -108.5t12.5 -118.5q3 -39 5 -103v-24q-1 -50 -7 -94q-8 -54 -25 -107q-18 -56 -75 -56q-6 0 -12 1q-61 5 -105 53q-34 35 -34 72q0 14 5 28
q19 59 24 131q3 42 3 75q1 23 -1 41q-4 44 -15.5 136.5t-14.5 121.5q-3 27 -12 127.5t-14.5 145t-18.5 120t-30 136.5z" />
    <glyph glyph-name="i" unicode="&#xed;" horiz-adv-x="825" 
d="M204 1834q6 26 11 40.5t16.5 45.5t15.5 42q3 20 16 37q24 33 66 33h2q41 0 75 -22q36 -22 58 -60q14 -24 13 -47q0 -13 -4 -26q-5 -15 -17 -42.5t-14 -33.5q-5 -12 -13 -36q-4 -14 -5 -21l-1 1v-8q-3 -67 -62 -77q-11 -2 -22 -2l-88 32q-54 39 -54 91q0 23 7 53zM295 981
q-6 20 -6 36q0 43 42 59q19 7 40 7q33 0 71 -18q57 -28 71 -79q19 -67 34 -151.5t20.5 -129t16.5 -162.5t13 -139q3 -30 12.5 -108.5t12.5 -118.5q3 -39 5 -103v-24q-1 -50 -7 -94q-8 -54 -25 -107q-18 -56 -75 -56q-6 0 -12 1q-61 5 -105 53q-34 35 -34 72q0 14 5 28
q19 59 24 131q3 42 3 75q1 23 -1 41q-4 44 -15.5 136.5t-14.5 121.5q-3 27 -12 127.5t-14.5 145t-18.5 120t-30 136.5z" />
    <glyph glyph-name="i" unicode="&#xec;" horiz-adv-x="825" 
d="M204 1834q6 26 11 40.5t16.5 45.5t15.5 42q3 20 16 37q24 33 66 33h2q41 0 75 -22q36 -22 58 -60q14 -24 13 -47q0 -13 -4 -26q-5 -15 -17 -42.5t-14 -33.5q-5 -12 -13 -36q-4 -14 -5 -21l-1 1v-8q-3 -67 -62 -77q-11 -2 -22 -2l-88 32q-54 39 -54 91q0 23 7 53zM295 981
q-6 20 -6 36q0 43 42 59q19 7 40 7q33 0 71 -18q57 -28 71 -79q19 -67 34 -151.5t20.5 -129t16.5 -162.5t13 -139q3 -30 12.5 -108.5t12.5 -118.5q3 -39 5 -103v-24q-1 -50 -7 -94q-8 -54 -25 -107q-18 -56 -75 -56q-6 0 -12 1q-61 5 -105 53q-34 35 -34 72q0 14 5 28
q19 59 24 131q3 42 3 75q1 23 -1 41q-4 44 -15.5 136.5t-14.5 121.5q-3 27 -12 127.5t-14.5 145t-18.5 120t-30 136.5z" />
    <glyph glyph-name="j" unicode="j" horiz-adv-x="1163" 
d="M204 -64q-7 18 -7 34q0 25 14 47q17 24 46.5 29.5t56 -2.5t51.5 -24q27 -17 74 -62t78 -63q6 -3 17.5 -10.5t20.5 -12.5t21.5 -12t23.5 -11t22.5 -7t22.5 -3t21 4q25 10 42 33t24 48.5t9 62.5t0.5 63.5t-4.5 63t-3 48.5q-2 51 -2.5 196.5t-7.5 225.5q-16 198 -18 397
q0 67 59 77q11 2 22 2q44 0 89 -33q56 -40 57 -94q1 -98 12.5 -283t13.5 -268q1 -24 1 -76v-58q-1 -20 -1 -37q0 -68 2 -97q0 -11 2 -47t2 -52.5v-45.5t-2 -52.5t-6 -46.5q-19 -110 -97 -178q-68 -61 -160 -61q-12 0 -25 1q-40 4 -87.5 21t-74.5 31t-80 44q-36 21 -92 72
t-86 70q-36 23 -51 66z" />
    <glyph glyph-name="k" unicode="k" horiz-adv-x="1822" 
d="M200 -431q10 37 44 53q1 9 6 26t6 23q10 48 15 120q8 108 8 243v12q1 158 -25 456q-26 308 -28 458q0 67 59 77q11 2 22 2q44 0 89 -33q57 -40 57 -94q1 -150 29 -494q24 -292 24 -470q0 -32 -1 -60q0 -13 -1 -43q0 -35 -0.5 -54.5t-2 -58.5t-5 -63.5t-9 -60.5
t-14.5 -58.5t-20.5 -49.5t-28.5 -41t-37.5 -25t-48 -9.5t-59.5 12.5q-48 17 -69 56q-14 26 -14 51q0 13 4 25zM501 241q-3 10 -3 20q0 23 16 44q38 53 94.5 102.5t131 105t110.5 87.5q22 20 47 45t41.5 43t45 49.5t41.5 45.5q35 38 105 99t95 86q28 27 67 27q25 0 55 -11
q61 -24 87 -73q12 -21 12 -40q0 -26 -22 -47q-25 -24 -95 -86t-105 -100q-121 -133 -162 -172q-39 -37 -123 -100.5t-108 -83.5q126 -5 150 -7q83 -7 230 -48q46 -13 66.5 -19t68.5 -22t74.5 -28.5t65.5 -34.5t61.5 -44t43.5 -53t30 -66q4 -18 4 -33q0 -47 -43 -63
q-19 -7 -40 -7q-33 0 -70 18q-56 29 -69 80q-1 3 -50 22.5t-71 27.5q-45 15 -167 46q-67 16 -170.5 21.5t-194.5 18t-164 50.5q-29 15 -52 41t-33 59z" />
    <glyph glyph-name="l" unicode="l" horiz-adv-x="1669" 
d="M197 753v8q1 32 7 77q8 50 14 87t7 87v7q0 45 -11 76q-6 20 -6 37q0 42 40 57q19 7 40 7q33 0 71 -18q58 -28 73 -78q13 -43 15 -95q1 -21 1 -38q0 -27 -2 -47q-3 -32 -12 -95q-6 -43 -6 -94q0 -105 25 -243q4 -24 14.5 -75.5t16 -81.5t11.5 -74t8 -80q1 -19 2 -58
q0 -20 -1 -44v-62.5v-39.5q0 -12 11 -105q1 -6 5 -18q1 0 7 2q20 6 69 6t63 2l120 15q10 1 21 1q48 0 110 -15q76 -18 134 -37.5t132 -25.5q14 -1 29 -2q56 0 97 22q18 8 38 8q34 0 68 -26q56 -40 62 -94q1 -5 1 -10q0 -47 -52 -79q-58 -30 -131 -30q-10 0 -22 1
q-88 5 -154 25.5t-154 38.5q-63 12 -115 12q-21 0 -40 -2q-125 -14 -199 -14q-27 0 -48 2q-189 18 -248 177q-27 74 -33.5 170t-7 202.5t-12.5 174.5q-4 25 -22.5 114.5t-26.5 148.5t-9 116zM517 -150z" />
    <glyph glyph-name="m" unicode="m" horiz-adv-x="2115" 
d="M206 111q37 74 71 171.5t59.5 183t56.5 174.5t78.5 173.5t109.5 152.5q29 32 68 32q38 0 86 -29q32 -19 60 -49.5t45.5 -58t37 -73t28 -70t25.5 -74.5q3 -10 5 -15q32 -98 63 -170q0 -1 1 -1l1 -2q17 38 57.5 126t61.5 136q6 14 32.5 76t38.5 88.5t36 71t48 77.5
q44 63 100 81q27 9 53 8q28 0 56 -10q53 -20 100 -63t79 -100q47 -82 84.5 -191t56.5 -188.5t45 -204.5q1 -7 14 -67t15.5 -75.5t12.5 -67t12.5 -76.5t7.5 -67q5 -44 6 -78q0 -17 0.5 -34t-0.5 -34q-2 -67 -62 -77q-10 -2 -21 -2q-46 0 -90 33q-54 39 -54 91v27q0 50 -6 112
q-8 76 -15.5 116t-25.5 134q-58 309 -134 503q-5 13 -40 74q-24 -33 -28 -40q-21 -36 -40 -77t-42 -95.5t-34 -79.5q-19 -42 -59 -127.5t-69.5 -153t-52.5 -130.5q-12 -34 -42 -46q-20 -8 -42 -9q-11 1 -22 3q-33 6 -59 26q-17 13 -33 28.5t-28.5 28.5t-27 35t-23 33.5
t-22 39t-18.5 36.5t-19 41.5t-16 38t-16.5 41.5t-15.5 38q-10 25 -29.5 98t-33.5 109q-48 -76 -89 -178.5t-65.5 -189.5t-61.5 -194t-76 -185q-20 -39 -60 -39q-15 0 -32 5q-58 17 -94 71q-23 34 -23 66q0 22 10 42z" />
    <glyph glyph-name="n" unicode="n" horiz-adv-x="1894" 
d="M199 183q20 92 35 266.5t27 248.5q5 28 14 75.5t13.5 75t12 75.5t9.5 76t4 76q1 19 1 35q0 25 -2 42v10q0 57 53 66q10 2 20 2q45 0 93 -33q57 -40 61 -93q2 -26 2 -80q0 -1 2 -2l2 -1q56 -46 144.5 -157.5t144.5 -157.5q29 -24 109.5 -88t135 -111t102.5 -96
q24 -25 49 -53.5t55 -66t46 -56.5q50 -58 102 -114q5 -5 27 -23q4 46 4 71q0 10 -1 16q-6 106 -35 266q-16 88 -20 219t-13.5 251t-39.5 215q-7 21 -7 38q0 41 40 56q19 7 40 7q34 0 72 -19q56 -28 72 -77q12 -38 20.5 -82.5t13.5 -75.5t9 -86.5t5 -76.5t3.5 -88t2.5 -79
q4 -100 35 -288q2 -10 8 -44t9.5 -56.5t8.5 -61.5t7 -67.5t2 -66t-4.5 -64.5t-14 -56.5t-24.5 -48.5t-38 -33.5t-53 -18.5q-12 -2 -24 -2l-48 7q-36 10 -71.5 34.5t-59 44.5t-55.5 52q-22 22 -44 45.5t-46.5 52t-40 47t-45 53.5t-40.5 49q-19 22 -38.5 43.5t-44 44.5
t-41.5 38.5t-47 40.5t-44 36.5t-49 39.5l-45 36q-7 5 -28.5 23t-30.5 25t-28 22.5t-30 26t-26 25t-27.5 28t-24.5 27.5q-13 15 -70 95q-5 -27 -15 -78t-14 -75q-14 -80 -29.5 -264.5t-37.5 -281.5q-12 -57 -68 -57h-8q-58 3 -106 52q-40 40 -40 83q0 11 2 21zM1451 42
q2 -4 4 4l1 2q-8 -2 -5 -6z" />
    <glyph glyph-name="o" unicode="o" horiz-adv-x="1304" 
d="M197 492v16q0 176 61 313q72 152 170 192q39 13 75 13q35 0 67 -12q66 -25 116 -88q9 -12 15 -24q29 9 60 8q76 0 162 -52q89 -54 137 -142q46 -84 46 -184v-8q-2 -88 -17 -170.5t-46.5 -164.5t-89 -147t-134.5 -100q-88 -39 -175 -39q-76 0 -150 30q-158 64 -231 229
q-63 144 -66 330zM434 543q-6 -70 -6 -130q0 -240 98 -293q23 -12 51 -13q9 -1 17 1q38 4 71.5 18t59.5 33q77 56 115 184q40 133 40 227q0 18 -1 34q-5 58 -37 84q-7 6 -10.5 8.5t-7 4.5t-5 2.5t-4 -2t-3 -4t-4 -7t-5.5 -8.5q-19 -31 -54 -35q-7 -1 -13 -1q-28 0 -56 14
q-34 17 -59.5 48.5t-28.5 64.5q-27 7 -51 30q-12 -10 -13 -11q-26 -27 -48 -68q-37 -67 -46 -181z" />
    <glyph glyph-name="o" unicode="&#xf6;" horiz-adv-x="1304" 
d="M197 492v16q0 176 61 313q72 152 170 192q39 13 75 13q35 0 67 -12q66 -25 116 -88q9 -12 15 -24q29 9 60 8q76 0 162 -52q89 -54 137 -142q46 -84 46 -184v-8q-2 -88 -17 -170.5t-46.5 -164.5t-89 -147t-134.5 -100q-88 -39 -175 -39q-76 0 -150 30q-158 64 -231 229
q-63 144 -66 330zM434 543q-6 -70 -6 -130q0 -240 98 -293q23 -12 51 -13q9 -1 17 1q38 4 71.5 18t59.5 33q77 56 115 184q40 133 40 227q0 18 -1 34q-5 58 -37 84q-7 6 -10.5 8.5t-7 4.5t-5 2.5t-4 -2t-3 -4t-4 -7t-5.5 -8.5q-19 -31 -54 -35q-7 -1 -13 -1q-28 0 -56 14
q-34 17 -59.5 48.5t-28.5 64.5q-27 7 -51 30q-12 -10 -13 -11q-26 -27 -48 -68q-37 -67 -46 -181z" />
    <glyph glyph-name="o" unicode="&#xf5;" horiz-adv-x="1304" 
d="M197 492v16q0 176 61 313q72 152 170 192q39 13 75 13q35 0 67 -12q66 -25 116 -88q9 -12 15 -24q29 9 60 8q76 0 162 -52q89 -54 137 -142q46 -84 46 -184v-8q-2 -88 -17 -170.5t-46.5 -164.5t-89 -147t-134.5 -100q-88 -39 -175 -39q-76 0 -150 30q-158 64 -231 229
q-63 144 -66 330zM434 543q-6 -70 -6 -130q0 -240 98 -293q23 -12 51 -13q9 -1 17 1q38 4 71.5 18t59.5 33q77 56 115 184q40 133 40 227q0 18 -1 34q-5 58 -37 84q-7 6 -10.5 8.5t-7 4.5t-5 2.5t-4 -2t-3 -4t-4 -7t-5.5 -8.5q-19 -31 -54 -35q-7 -1 -13 -1q-28 0 -56 14
q-34 17 -59.5 48.5t-28.5 64.5q-27 7 -51 30q-12 -10 -13 -11q-26 -27 -48 -68q-37 -67 -46 -181z" />
    <glyph glyph-name="o" unicode="&#xf4;" horiz-adv-x="1304" 
d="M197 492v16q0 176 61 313q72 152 170 192q39 13 75 13q35 0 67 -12q66 -25 116 -88q9 -12 15 -24q29 9 60 8q76 0 162 -52q89 -54 137 -142q46 -84 46 -184v-8q-2 -88 -17 -170.5t-46.5 -164.5t-89 -147t-134.5 -100q-88 -39 -175 -39q-76 0 -150 30q-158 64 -231 229
q-63 144 -66 330zM434 543q-6 -70 -6 -130q0 -240 98 -293q23 -12 51 -13q9 -1 17 1q38 4 71.5 18t59.5 33q77 56 115 184q40 133 40 227q0 18 -1 34q-5 58 -37 84q-7 6 -10.5 8.5t-7 4.5t-5 2.5t-4 -2t-3 -4t-4 -7t-5.5 -8.5q-19 -31 -54 -35q-7 -1 -13 -1q-28 0 -56 14
q-34 17 -59.5 48.5t-28.5 64.5q-27 7 -51 30q-12 -10 -13 -11q-26 -27 -48 -68q-37 -67 -46 -181z" />
    <glyph glyph-name="o" unicode="&#xf3;" horiz-adv-x="1304" 
d="M197 492v16q0 176 61 313q72 152 170 192q39 13 75 13q35 0 67 -12q66 -25 116 -88q9 -12 15 -24q29 9 60 8q76 0 162 -52q89 -54 137 -142q46 -84 46 -184v-8q-2 -88 -17 -170.5t-46.5 -164.5t-89 -147t-134.5 -100q-88 -39 -175 -39q-76 0 -150 30q-158 64 -231 229
q-63 144 -66 330zM434 543q-6 -70 -6 -130q0 -240 98 -293q23 -12 51 -13q9 -1 17 1q38 4 71.5 18t59.5 33q77 56 115 184q40 133 40 227q0 18 -1 34q-5 58 -37 84q-7 6 -10.5 8.5t-7 4.5t-5 2.5t-4 -2t-3 -4t-4 -7t-5.5 -8.5q-19 -31 -54 -35q-7 -1 -13 -1q-28 0 -56 14
q-34 17 -59.5 48.5t-28.5 64.5q-27 7 -51 30q-12 -10 -13 -11q-26 -27 -48 -68q-37 -67 -46 -181z" />
    <glyph glyph-name="o" unicode="&#xf2;" horiz-adv-x="1304" 
d="M197 492v16q0 176 61 313q72 152 170 192q39 13 75 13q35 0 67 -12q66 -25 116 -88q9 -12 15 -24q29 9 60 8q76 0 162 -52q89 -54 137 -142q46 -84 46 -184v-8q-2 -88 -17 -170.5t-46.5 -164.5t-89 -147t-134.5 -100q-88 -39 -175 -39q-76 0 -150 30q-158 64 -231 229
q-63 144 -66 330zM434 543q-6 -70 -6 -130q0 -240 98 -293q23 -12 51 -13q9 -1 17 1q38 4 71.5 18t59.5 33q77 56 115 184q40 133 40 227q0 18 -1 34q-5 58 -37 84q-7 6 -10.5 8.5t-7 4.5t-5 2.5t-4 -2t-3 -4t-4 -7t-5.5 -8.5q-19 -31 -54 -35q-7 -1 -13 -1q-28 0 -56 14
q-34 17 -59.5 48.5t-28.5 64.5q-27 7 -51 30q-12 -10 -13 -11q-26 -27 -48 -68q-37 -67 -46 -181z" />
    <glyph glyph-name="p" unicode="p" horiz-adv-x="1669" 
d="M197 1227q0 39 22 57q23 20 59 18q24 32 61.5 56t85.5 40t84.5 24.5t86.5 17.5q212 38 377 38q82 0 152 -9q76 -10 155.5 -49t135 -97.5t57.5 -129.5v-4q0 -69 -75 -142q-37 -34 -80.5 -63t-113.5 -67t-90 -50q-264 -154 -404 -217q-18 -8 -38 -8q-33 0 -68 26
q-56 40 -62 94v9q0 47 52 79q86 39 189.5 95.5t164.5 93t181 109.5q68 41 90 63q4 4 11 12.5t11 12.5q-29 19 -73 27q-38 7 -72 7h-12q-39 -2 -78 -2q-167 -5 -304 -31q-232 -42 -236 -83q-4 -47 -39 -67q7 -96 36.5 -291.5t36.5 -295.5q4 -59 16 -199t18 -243t7 -199
q0 -67 -59 -77q-10 -2 -20 -2q-45 0 -91 33q-57 41 -57 95q-1 96 -7 197.5t-17.5 245t-15.5 197.5q-6 95 -40 323q-37 241 -37 356z" />
    <glyph glyph-name="q" unicode="q" horiz-adv-x="1464" 
d="M203 558q23 194 107 348q102 186 221 223q32 10 63 10q86 0 164 -78q13 22 23.5 38.5t25 35.5t28.5 31t32.5 23.5t37.5 16t43 4t50 -7.5q83 -23 144.5 -89.5t91 -147t32.5 -167.5q1 -16 1 -32q0 -198 -92 -374q-99 -191 -279 -318q-15 -12 -42 -27q12 -26 91 -182
q32 -62 100 -208t109 -222q17 -32 17 -57q0 -31 -27 -51q-26 -20 -61 -20q-19 0 -40 6q-58 15 -84 64q-39 73 -105.5 215t-78.5 166q-13 27 -52 100.5t-58 115.5q-46 -7 -89 -7q-42 0 -82 7q-81 13 -150 71t-106 154q-42 119 -42 252q0 53 7 107zM433 301q8 -78 39 -111
q21 -21 60 -21q19 0 42 5q1 0 2.5 0.5t2.5 0.5q-2 3 -5.5 11t-4.5 12q-24 53 -42 87q0 1 -4 6.5t-8.5 13l-7.5 12.5q-56 40 -56 98q1 43 35 65q23 16 49 16q13 0 26 -4q67 -17 115 -75.5t88 -147.5q83 63 146.5 150.5t93.5 176.5q19 56 30 113q10 50 10 107v15
q-2 65 -21 114q-6 19 -19 37l-6 4q-4 -4 -5 -6q-23 -45 -73 -127q-27 -37 -67 -37h-3q-42 2 -83 34q-10 -2 -20 -2q-28 0 -57 13q-39 17 -61 54q-2 -2 -5 -3.5t-5 -3t-4 -2.5l-2 -1q-27 -23 -73 -90q-60 -93 -84 -201q-27 -123 -27 -232q0 -42 4 -81zM504 325q0 -2 2 -4z
M640 923q8 -4 8 6q-3 -3 -8 -6z" />
    <glyph glyph-name="r" unicode="r" horiz-adv-x="1691" 
d="M197 1113q1 48 34 67q21 12 46 12q13 0 29 -4q42 -10 76 -40q147 115 474 122h14q58 0 111 -8q60 -8 121.5 -29.5t107 -65.5t63.5 -106q9 -40 9 -74v-11q-2 -38 -21.5 -76.5t-42.5 -69.5t-58 -61t-67 -52.5t-68 -43.5q-106 -61 -300 -135q48 -30 137 -90t131 -86
q84 -53 128.5 -82t112.5 -77t122.5 -95.5t102.5 -99.5q36 -39 36 -73q0 -20 -12 -38q-25 -39 -81 -41q-59 0 -101 45q-20 21 -40 41t-45 40.5t-42.5 35t-48.5 36t-45.5 32t-50.5 34t-46.5 30t-51.5 32t-48 30.5q-35 22 -129 85.5t-162 102.5t-138 67l4 -60q2 -15 6 -93
q5 -72 5 -109q-1 -3 -1 -6q0 -36 -10.5 -93t-37.5 -95q-20 -29 -54 -35q-8 -1 -17 -1q-25 1 -49 13q-32 16 -58 42t-32 60l-2 16q0 25 14 49q9 14 13.5 37t4.5 38t-1.5 47t-1.5 36q-1 33 -4 94.5t-4 85.5q-2 75 -18 289q-14 190 -14 304v27zM424 968q2 -101 16 -296
q15 6 142 54.5t192 79.5q107 50 178 103q23 17 38 34t36 50t26 40v3q1 2 1.5 5.5t0.5 5.5q-5 4 -14 5q-54 10 -115 10q-33 0 -68 -3q-224 -18 -316 -92q-24 -19 -53 -19q-30 0 -64 20z" />
    <glyph glyph-name="s" unicode="s" horiz-adv-x="1456" 
d="M232 126q23 16 50 15q12 0 25 -3q113 -28 218 -27q137 0 260 47q80 31 117 67q9 9 12 15q-4 10 -4 11l-19 20q-19 19 -54 43q-36 26 -107.5 72t-79.5 51q-43 28 -67.5 45t-65 50.5t-63.5 61t-42.5 66.5t-22.5 79q-2 29 4 58.5t15.5 55t29 55t35.5 50.5t45 49.5t46.5 45
t52 44t49 39t49.5 37.5t43 32q129 98 233 98q23 0 45 -5q147 -33 217 -232q5 -15 5 -29q0 -24 -15 -44q-24 -32 -67 -34h-3q-43 1 -82 29q-40 30 -55 73q-2 8 -11 29q-36 -15 -60 -31q-37 -24 -157 -123q-111 -93 -157 -160q-21 -32 -33 -62q-1 -2 -2.5 -6t-2.5 -6q2 0 3 -3
q-1 2 -2 5q2 -5 7 -10l7 -7l17 -17q28 -24 100 -73q15 -10 92 -59t116 -78q38 -28 70.5 -57.5t62.5 -70.5q32 -40 46 -80q10 -28 10 -58q0 -12 -2 -26q-6 -46 -39 -87q-82 -103 -290 -152q-114 -27 -234 -27q-130 0 -264 32q-45 10 -81 46q-35 35 -35 78q0 45 35 68z
M915 243v5v-5z" />
    <glyph glyph-name="t" unicode="t" horiz-adv-x="2054" 
d="M201 1059q4 32 52 50q56 21 116 33t130.5 15t117.5 3t132 -2.5t120 -3.5q25 0 50 0.5t43.5 1t46.5 3.5t40.5 4t45.5 5.5t41.5 6t48 7.5t46.5 7q51 8 98 13t115 7q19 1 37 0q45 0 85 -3q56 -5 113.5 -22.5t96.5 -45.5q38 -28 61 -78q20 -42 20 -97q0 -9 -1 -19
q-4 -67 -64 -77q-11 -2 -22 -2l-88 32q-52 38 -52 89v6v5q-16 0 -62 4q-37 3 -60 3h-11q-89 -5 -287 -38q-90 -15 -220 -15v-156t1 -155.5t8 -154.5t21 -155q13 -66 19 -99t13 -95q4 -40 5 -71q0 -18 -2 -33q-4 -41 -17.5 -92t-40.5 -93q-31 -35 -73 -35q-12 0 -24 3
q-58 11 -96 69q-21 31 -21 61q0 24 15 47q22 34 30 77q5 27 6 57q0 18 -2 36q-5 50 -12 89t-20 94t-18 81q-11 62 -16 136t-5 125t1.5 140t1.5 129h-45q-181 0 -290 -29q6 -15 6 -29q-1 -23 -17 -43q-26 -32 -67 -34h-3q-44 1 -82 29q-39 30 -55 73q-13 37 -13 85q0 24 3 51
zM1644 996z" />
    <glyph glyph-name="u" unicode="u" horiz-adv-x="1249" 
d="M197 875q0 67 59 77q10 2 20 2q45 0 92 -33q55 -40 55 -94q0 -121 2 -193t14.5 -177t37.5 -189q33 -111 113 -205q4 -4 10 -8q17 5 37 25q101 99 160 346q26 106 27 188q0 48 -4 68q0 2 -0.5 4.5t-1.5 4.5q-21 18 -31.5 40t-9 41t9.5 37t24.5 29t36.5 16t45 -1t50 -23
q52 -36 79 -94q26 -58 28 -129q0 -13 1 -26q1 -55 -5 -101q-6 -56 -22 -126q-76 -356 -244 -469q-66 -40 -128 -40q-7 0 -14 1q-69 5 -134 50.5t-113 104.5t-79 124q-40 82 -64.5 174.5t-35 198t-13 182t-2.5 195.5zM603 53zM816 696z" />
    <glyph glyph-name="u" unicode="&#xfb;" horiz-adv-x="1249" 
d="M197 875q0 67 59 77q10 2 20 2q45 0 92 -33q55 -40 55 -94q0 -121 2 -193t14.5 -177t37.5 -189q33 -111 113 -205q4 -4 10 -8q17 5 37 25q101 99 160 346q26 106 27 188q0 48 -4 68q0 2 -0.5 4.5t-1.5 4.5q-21 18 -31.5 40t-9 41t9.5 37t24.5 29t36.5 16t45 -1t50 -23
q52 -36 79 -94q26 -58 28 -129q0 -13 1 -26q1 -55 -5 -101q-6 -56 -22 -126q-76 -356 -244 -469q-66 -40 -128 -40q-7 0 -14 1q-69 5 -134 50.5t-113 104.5t-79 124q-40 82 -64.5 174.5t-35 198t-13 182t-2.5 195.5zM603 53zM816 696z" />
    <glyph glyph-name="u" unicode="&#xfa;" horiz-adv-x="1249" 
d="M197 875q0 67 59 77q10 2 20 2q45 0 92 -33q55 -40 55 -94q0 -121 2 -193t14.5 -177t37.5 -189q33 -111 113 -205q4 -4 10 -8q17 5 37 25q101 99 160 346q26 106 27 188q0 48 -4 68q0 2 -0.5 4.5t-1.5 4.5q-21 18 -31.5 40t-9 41t9.5 37t24.5 29t36.5 16t45 -1t50 -23
q52 -36 79 -94q26 -58 28 -129q0 -13 1 -26q1 -55 -5 -101q-6 -56 -22 -126q-76 -356 -244 -469q-66 -40 -128 -40q-7 0 -14 1q-69 5 -134 50.5t-113 104.5t-79 124q-40 82 -64.5 174.5t-35 198t-13 182t-2.5 195.5zM603 53zM816 696z" />
    <glyph glyph-name="u" unicode="&#xf9;" horiz-adv-x="1249" 
d="M197 875q0 67 59 77q10 2 20 2q45 0 92 -33q55 -40 55 -94q0 -121 2 -193t14.5 -177t37.5 -189q33 -111 113 -205q4 -4 10 -8q17 5 37 25q101 99 160 346q26 106 27 188q0 48 -4 68q0 2 -0.5 4.5t-1.5 4.5q-21 18 -31.5 40t-9 41t9.5 37t24.5 29t36.5 16t45 -1t50 -23
q52 -36 79 -94q26 -58 28 -129q0 -13 1 -26q1 -55 -5 -101q-6 -56 -22 -126q-76 -356 -244 -469q-66 -40 -128 -40q-7 0 -14 1q-69 5 -134 50.5t-113 104.5t-79 124q-40 82 -64.5 174.5t-35 198t-13 182t-2.5 195.5zM603 53zM816 696z" />
    <glyph glyph-name="v" unicode="v" horiz-adv-x="1757" 
d="M204 897q24 49 76 49h3q54 -2 100 -52q10 -13 20 -28t17.5 -27t17.5 -30t15.5 -27t16 -30.5t14 -28.5t14.5 -31.5t13 -28.5t14.5 -32t13.5 -30q54 -121 187 -301q90 -122 122 -175q9 38 20.5 75.5t28 79t28.5 70.5t34.5 77t32.5 69t37 76t35 70q98 199 145 274
q75 121 159 196q18 16 42 19.5t46 -5t43.5 -24t36 -37t21 -44t0 -46.5t-26.5 -42q-16 -15 -31 -31t-31 -38t-26 -36.5t-26.5 -42.5t-22.5 -38.5t-24 -43.5t-21 -39q-27 -49 -150 -300q-40 -81 -57.5 -118.5t-42.5 -106t-36 -126.5q-2 -14 -8 -55.5t-10.5 -64t-18 -52.5
t-33.5 -49q-35 -31 -75 -31q-7 0 -14 1q-48 6 -90 35t-67 69q-25 39 -62.5 126t-65.5 129q-18 27 -108 149t-128 195q-15 29 -65.5 148t-91.5 174q-29 39 -29 74q-1 18 8 36z" />
    <glyph glyph-name="w" unicode="w" horiz-adv-x="2146" 
d="M211 943q-16 31 -16 56q0 33 28 54q26 19 60 19q19 0 41 -6q57 -16 82 -65q22 -43 36.5 -89t24 -107t12.5 -91t10 -105q5 -56 36 -293l3 -18q29 99 50 149q18 43 27.5 64.5t30 59.5t39 60t47 45t61.5 35q57 19 112 18q47 1 93 -13q98 -30 173 -114q52 -58 99.5 -144.5
t94.5 -181t90 -153.5q3 32 7.5 90.5t6.5 77.5q7 80 53 296q45 211 90 304q20 42 69.5 116.5t68.5 111.5q28 36 69 36q10 1 20 -1q55 -10 95 -69q24 -35 25 -67q0 -22 -11 -43q-16 -30 -68 -108.5t-71 -125.5q-13 -32 -25 -72.5t-17.5 -66t-16.5 -78.5t-15 -70
q-18 -84 -38.5 -285t-49.5 -305q-9 -36 -41 -48q-19 -7 -38 -6q-12 0 -26 3q-32 8 -60 25q-82 52 -149 136t-106 161t-94 177.5t-106 165.5q-35 45 -71 45q-74 0 -149 -196q-25 -65 -88 -277q-20 -67 -29 -85q-26 -51 -72 -68q-24 -9 -49 -9q-23 0 -47 8q-48 16 -86 57
q-33 36 -56.5 91.5t-32.5 95t-20 106.5q-21 125 -44 305q-5 37 -9.5 123.5t-15.5 151.5t-37 117z" />
    <glyph glyph-name="x" unicode="x" horiz-adv-x="1943" 
d="M197 -180q2 34 31 58q43 35 79 90.5t72.5 122t65.5 103.5q49 64 145 178t122 145q-30 35 -66 85q-32 47 -85 142q-30 52 -37 62q-9 13 -20 26q-64 8 -95 68q-16 31 -16 58q0 21 10 40q21 38 74 38q10 0 22 -1q46 -6 86 -29t73 -62t54.5 -71.5t48.5 -80.5q39 -69 77 -120
q16 18 87.5 100t98 115.5t77 100t82 124t54.5 117.5q30 54 86 54h2q57 -1 105 -51q33 -35 33 -71q0 -15 -6 -31q-27 -71 -65 -139.5t-90 -138.5t-92 -119.5t-107.5 -128t-99.5 -117.5l27 -24q61 -53 132 -104t173 -117t141 -93q8 -5 101.5 -63t135.5 -96q34 -31 34 -70
q0 -6 -1 -14q-7 -48 -55 -70q-6 -3 -12.5 -4t-14 -0.5t-13 0.5t-14.5 3t-12.5 3.5t-14 4.5t-11.5 4q-37 13 -58 39q-7 5 -12 8q-8 4 -23.5 14t-22.5 14q-50 30 -146 96q-42 29 -124 82.5t-147 98.5t-119 90q-31 25 -62 53q-23 -27 -81.5 -95.5t-99.5 -118.5t-77 -99
q-28 -39 -69 -109.5t-80 -125.5t-88 -95q-25 -19 -57 -19h-5q-34 2 -63.5 25t-49.5 51q-18 26 -18 57v7zM500 836l1 -1zM1575 36h1h-1z" />
    <glyph glyph-name="y" unicode="y" horiz-adv-x="1857" 
d="M200 1248q12 41 52 53q16 5 32 5q27 0 54 -14q42 -22 69 -62q19 -28 65 -102.5t83 -125t79 -91.5q25 -24 57.5 -49.5t54.5 -40.5t65 -43.5t59 -39.5q31 34 124 129.5t142 149.5q88 97 162.5 163.5t160.5 109.5q21 11 45 11q38 0 81 -28q57 -36 71 -86q3 -11 3 -21
q0 -35 -38 -55q-83 -42 -154.5 -105.5t-151.5 -154.5q-47 -53 -139.5 -147t-130.5 -135q21 -86 25 -197q3 -63 3 -118q0 -43 -1 -81q-1 -21 -1 -44q0 -70 8 -156q3 -26 13.5 -103t13.5 -117q1 -12 1 -26q0 -32 -5 -75q-7 -60 -30 -107q-19 -39 -59 -39q-14 0 -31 5
q-58 16 -94 69q-24 35 -24 68q0 21 10 41q7 15 9 39t0.5 40t-6 48.5t-4.5 36.5q-3 29 -11.5 91.5t-11.5 96.5q-3 39 -3 126q0 52 1 121v52q0 141 -14 193q-26 20 -160.5 113.5t-197.5 156.5q-48 48 -90 104.5t-99.5 148t-74.5 116.5q-16 23 -16 49q0 13 4 27z" />
    <glyph glyph-name="y" unicode="&#xfd;" horiz-adv-x="1857" 
d="M200 1248q12 41 52 53q16 5 32 5q27 0 54 -14q42 -22 69 -62q19 -28 65 -102.5t83 -125t79 -91.5q25 -24 57.5 -49.5t54.5 -40.5t65 -43.5t59 -39.5q31 34 124 129.5t142 149.5q88 97 162.5 163.5t160.5 109.5q21 11 45 11q38 0 81 -28q57 -36 71 -86q3 -11 3 -21
q0 -35 -38 -55q-83 -42 -154.5 -105.5t-151.5 -154.5q-47 -53 -139.5 -147t-130.5 -135q21 -86 25 -197q3 -63 3 -118q0 -43 -1 -81q-1 -21 -1 -44q0 -70 8 -156q3 -26 13.5 -103t13.5 -117q1 -12 1 -26q0 -32 -5 -75q-7 -60 -30 -107q-19 -39 -59 -39q-14 0 -31 5
q-58 16 -94 69q-24 35 -24 68q0 21 10 41q7 15 9 39t0.5 40t-6 48.5t-4.5 36.5q-3 29 -11.5 91.5t-11.5 96.5q-3 39 -3 126q0 52 1 121v52q0 141 -14 193q-26 20 -160.5 113.5t-197.5 156.5q-48 48 -90 104.5t-99.5 148t-74.5 116.5q-16 23 -16 49q0 13 4 27z" />
    <glyph glyph-name="z" unicode="z" horiz-adv-x="2387" 
d="M197 934q0 47 56 63q19 5 40 9t37 6t41 3.5t38 2t41.5 1.5t39.5 0q110 2 282 32q60 11 160 41q98 30 186 50q73 16 136 17q13 0 26 -1q94 -6 152 -72q44 -50 44 -112q0 -22 -5 -45q-12 -52 -40.5 -114t-53 -102t-70 -110.5t-61.5 -95.5q-140 -227 -230 -400
q-29 -59 -39 -85q-1 -1 -1 -3.5t-1 -3.5q96 4 116 6q55 10 135 10q16 -1 34 -1q104 -2 169.5 -7.5t168.5 -17.5q33 -4 80.5 -13.5t88 -18t84.5 -14.5q31 -4 62 -4q13 1 25 1q44 2 80 14q16 6 33 6q42 0 84 -37q52 -43 55 -95v-7q0 -49 -55 -67q-33 -11 -71 -16t-67 -6h-9
q-27 0 -67 4q-47 6 -68 9.5t-75 13.5t-68 12q-215 37 -384 37q-72 0 -135 -7q-10 -1 -59.5 -7t-67.5 -8q-17 -2 -59 -2h-8q-36 0 -58 4q-24 4 -56 15t-58 29q-89 59 -89 163q0 63 34 143q52 123 196 364q26 43 80 125t95.5 150.5t70.5 132.5q-28 -4 -39 -7
q-217 -57 -285 -69q-161 -28 -277 -37q-8 -1 -102 -2t-140 -14q-15 -4 -29 -4l-89 39q-54 47 -54 102z" />
    <glyph glyph-name="uni00A0" unicode="&#xa0;" horiz-adv-x="1001" 
 />
    <glyph glyph-name="uni2000" unicode="&#x2000;" horiz-adv-x="1016" 
 />
    <glyph glyph-name="uni2001" unicode="&#x2001;" horiz-adv-x="2032" 
 />
    <glyph glyph-name="uni2002" unicode="&#x2002;" horiz-adv-x="1016" 
 />
    <glyph glyph-name="uni2003" unicode="&#x2003;" horiz-adv-x="2032" 
 />
    <glyph glyph-name="uni2004" unicode="&#x2004;" horiz-adv-x="677" 
 />
    <glyph glyph-name="uni2005" unicode="&#x2005;" horiz-adv-x="508" 
 />
    <glyph glyph-name="uni2006" unicode="&#x2006;" horiz-adv-x="338" 
 />
    <glyph glyph-name="uni2007" unicode="&#x2007;" horiz-adv-x="338" 
 />
    <glyph glyph-name="uni2008" unicode="&#x2008;" horiz-adv-x="254" 
 />
    <glyph glyph-name="uni2009" unicode="&#x2009;" horiz-adv-x="406" 
 />
    <glyph glyph-name="uni200A" unicode="&#x200a;" horiz-adv-x="112" 
 />
    <glyph glyph-name="uni202F" unicode="&#x202f;" horiz-adv-x="406" 
 />
    <glyph glyph-name="uni205F" unicode="&#x205f;" horiz-adv-x="508" 
 />
    <glyph glyph-name="uni25FC" unicode="&#x25fc;" horiz-adv-x="1280" 
d="M0 0v1280h1280v-1280h-1280z" />
  </font>
</defs>
</svg>
